<svg width="323" height="187" viewBox="0 0 323 187" fill="none" xmlns="http://www.w3.org/2000/svg">
<path d="M283.584 0.351883C283.231 0.502686 282.676 0.929977 282.398 1.30699C282.095 1.68401 281.515 2.03589 281.111 2.13643C280.354 2.31236 278.84 3.84557 278.84 4.44879C278.84 4.62474 278.764 4.77554 278.638 4.77554C278.537 4.77554 278.31 5.35364 278.134 6.08253C277.755 7.74141 278.108 7.99275 280.607 7.84193L281.237 7.8168L280.607 8.29436C279.9 8.84732 279.446 8.92271 279.193 8.52057C279.118 8.36977 278.739 8.29436 278.361 8.36977C277.957 8.44516 277.528 8.34464 277.276 8.11842C276.872 7.76654 276.746 7.76654 275.888 8.16869C275.358 8.42003 274.651 8.87245 274.298 9.17406C273.945 9.47568 273.339 9.85269 272.961 9.97836C272.557 10.104 271.825 10.5565 271.32 11.0089C270.79 11.4613 269.756 12.3661 268.999 13.0448C268.242 13.7234 266.98 14.578 266.223 14.955C264.835 15.6336 260.671 19.4289 260.671 20.007C260.671 20.1578 260.343 20.9118 259.914 21.691C259.511 22.4702 259.157 23.3247 259.157 23.5761C259.157 23.8274 258.88 24.1793 258.527 24.3301C258.173 24.4809 257.896 24.8328 257.896 25.0841C257.896 25.3355 257.618 25.7879 257.265 26.0895C256.811 26.4917 256.634 26.8938 256.634 27.5222C256.634 28.2762 256.71 28.4019 257.24 28.4019C257.568 28.4019 257.896 28.5527 257.971 28.7538C258.047 28.9548 258.35 29.0554 258.754 28.98C259.763 28.7789 261.681 29.6586 261.681 30.3121C261.681 30.664 261.479 30.9153 261.126 30.9907C260.798 31.0661 260.015 31.3175 259.385 31.5688C258.375 31.9458 258.148 31.971 257.795 31.6945C257.416 31.3929 257.416 31.2923 257.77 30.9153C258.098 30.5383 258.072 30.4378 257.416 29.8094L256.71 29.1308L256.028 29.91C255.372 30.7142 255.17 31.5186 255.599 31.7699C255.726 31.8453 255.902 32.4485 256.003 33.0769C256.155 34.1577 256.104 34.2833 255.397 34.9117C254.994 35.2636 254.615 35.8417 254.565 36.1936C254.514 36.5957 254.312 36.847 253.984 36.8973C253.253 37.023 252.849 37.6765 252.849 38.707C252.849 39.3102 252.672 39.7878 252.344 40.0894C252.067 40.3407 251.839 40.7932 251.839 41.0696C251.839 41.5723 251.461 41.9242 250.073 42.6531C249.493 42.9547 249.366 42.9044 248.382 41.9242L247.322 40.8937L245.632 41.0445C244.042 41.1702 243.916 41.2204 242.982 42.2509C241.266 44.1863 240.484 45.4179 240.484 46.2473C240.484 46.8254 240.206 47.3281 239.399 48.1827C238.314 49.3137 238.289 49.3137 237.431 49.0121C236.674 48.7356 236.421 48.7608 235.664 49.1629C235.21 49.4142 234.68 49.5902 234.529 49.5651C234.377 49.5399 234.049 49.741 233.797 50.0175C233.343 50.5202 232.661 50.6961 232.661 50.3191C232.661 50.2186 232.838 49.9421 233.04 49.6656C233.368 49.2383 233.343 49.1378 232.762 48.6853L232.131 48.1827L230.693 48.811C229.078 49.4897 228.523 50.2437 228.523 51.8523C228.498 52.732 228.447 52.8074 227.867 52.6817C227.488 52.6315 227.034 52.732 226.731 52.9833C226.327 53.3101 226.353 53.2598 226.807 52.7571C228.018 51.3747 227.362 51.048 225.066 51.9528C223.754 52.4555 223.173 52.8325 222.921 53.3352C222.517 54.1395 221.861 54.5417 220.978 54.5417C220.65 54.5417 220.17 54.7679 219.893 55.0695C219.489 55.5219 219.464 55.6225 219.792 55.8235C220.953 56.5022 220.953 56.5022 220.347 57.1305C219.64 57.8846 219.59 59.1915 220.271 59.5686C220.574 59.7194 220.826 59.7194 220.902 59.5937C221.053 59.3423 222.82 60.775 222.82 61.1269C222.82 61.2274 222.568 61.328 222.24 61.328C221.71 61.328 220.296 62.4841 220.296 62.8863C220.296 62.9868 220.498 63.1125 220.751 63.1628C221.104 63.2633 221.104 63.2884 220.675 63.3136C220.397 63.3387 219.741 63.4644 219.237 63.6152C218.252 63.8665 217.521 64.8216 217.521 65.8019C217.521 66.5057 215.956 66.7821 215.199 66.2292C214.871 66.0281 214.316 65.8522 213.937 65.8522C213.332 65.8522 213.231 65.9527 213.231 66.5559C213.231 66.9329 213.357 67.3854 213.534 67.5613C213.811 67.8378 214.745 70.4518 214.745 71.0047C214.745 71.1304 214.215 71.2812 213.534 71.3063C212.55 71.3566 212.196 71.2309 211.414 70.6026C210.909 70.2004 210.304 69.8737 210.102 69.8737C209.9 69.8737 209.698 69.6223 209.648 69.2956C209.597 68.8431 209.42 68.7426 208.815 68.7929C208.058 68.8431 208.058 68.8431 208.613 68.4159C209.496 67.7121 209.118 65.827 208.133 66.1538C207.654 66.3297 206.594 64.9473 206.796 64.3692C206.947 63.8917 206.443 63.6403 204.954 63.4644C204.626 63.4141 204.222 63.2633 204.02 63.0874C203.768 62.8863 203.566 62.9114 203.162 63.2633C202.86 63.4895 202.632 63.8665 202.632 64.0425C202.632 64.2436 202.481 64.3441 202.33 64.2687C202.153 64.2184 201.8 64.2687 201.547 64.3944C201.194 64.5703 200.942 64.52 200.614 64.2184C200.361 63.9922 199.983 63.8414 199.806 63.9168C199.63 63.9671 199.276 63.8665 199.049 63.6655C198.671 63.3387 198.595 63.389 198.368 64.2687C197.989 65.5505 198.015 65.7013 198.595 66.7821C199.276 68.0891 199.251 68.5667 198.418 68.7677C198.015 68.8683 197.384 69.2202 197.005 69.5469C196.097 70.2758 195.87 70.2758 195.516 69.4966C195.213 68.818 194.81 68.8934 194.81 69.6475C194.81 70.0747 194.658 70.1501 194.002 70.0747C193.472 70.0245 193.17 69.8737 193.17 69.6223C193.144 69.4212 193.043 69.0442 192.892 68.7929C192.665 68.3907 192.539 68.3656 191.126 68.7175C190.318 68.9186 189.309 69.1448 188.93 69.2202C188.526 69.3207 187.719 69.8485 187.088 70.4266C186.053 71.3817 185.978 71.4069 185.978 70.879C185.978 70.5523 185.776 70.0747 185.549 69.8234C185.12 69.3458 185.095 69.3458 184.464 70.125C183.883 70.8288 183.757 70.879 183.126 70.6528C182.722 70.502 181.991 70.3764 181.461 70.3764C180.552 70.3764 180.527 70.3512 180.628 69.6475C180.678 69.2453 181.183 68.3907 181.738 67.7121C182.849 66.3548 183.454 65.3243 183.454 64.7211C183.454 64.52 183.58 64.1179 183.757 63.8414C184.009 63.4393 183.984 63.2382 183.505 62.6098C183.202 62.1825 182.95 61.529 182.95 61.1269C182.95 60.398 181.764 58.9653 181.234 59.1161C181.107 59.1664 180.704 58.7894 180.376 58.3118C179.921 57.6835 179.593 57.4573 179.164 57.5075C178.862 57.5327 178.458 57.4573 178.281 57.3065C178.079 57.1557 177.827 57.1808 177.499 57.4321C177.247 57.6332 176.767 57.8091 176.464 57.8091C176.162 57.8091 175.606 57.9348 175.253 58.1108C174.698 58.3621 174.521 58.3118 174.017 57.8343C173.487 57.3316 173.234 57.2813 172.301 57.4321L171.216 57.6081L171.796 57.0048C172.225 56.5273 172.326 56.2257 172.2 55.5722C172.074 55.0444 171.897 54.793 171.619 54.8181C171.392 54.8433 170.913 54.793 170.534 54.6925C169.979 54.5417 169.676 54.6422 168.844 55.3208C167.304 56.5524 166.27 59.6942 167.102 60.5237C167.557 60.9761 166.926 61.328 165.614 61.328C164.73 61.328 164.554 61.4034 164.604 61.8307C164.629 62.1071 164.806 62.3836 165.033 62.459C165.311 62.5847 165.185 62.7104 164.604 62.9617C164.15 63.1628 163.771 63.4393 163.771 63.5901C163.771 63.7157 163.469 63.8414 163.115 63.8414C162.585 63.8414 162.51 63.7409 162.636 63.3387C162.762 62.9114 162.686 62.836 162.005 62.836C161.576 62.836 161.172 62.9868 161.097 63.1879C161.021 63.389 160.466 63.6152 159.86 63.7157C158.649 63.8917 157.337 64.7714 157.917 65.0227C158.422 65.2238 157.009 66.003 155.747 66.2292C155.167 66.3297 154.637 66.5057 154.536 66.6313C154.46 66.757 154.031 67.0335 153.552 67.2094C153.097 67.4105 152.593 67.8126 152.416 68.0891C152.239 68.441 151.886 68.6169 151.432 68.6169C150.675 68.6169 150.599 68.818 150.347 71.2561C150.322 71.5325 149.993 72.0101 149.64 72.3117L149.009 72.8898L149.842 73.5936C150.271 73.9957 150.65 74.3727 150.65 74.4481C150.65 74.8251 146.107 75.3027 144.114 75.1519C142.776 75.0513 142.373 75.1016 141.893 75.4786C141.288 75.9562 141.136 76.861 141.54 77.6402C141.717 77.9418 141.666 78.4194 141.439 79.1231C141.086 80.1034 141.111 80.2039 141.742 81.159C142.12 81.7371 142.499 82.1895 142.625 82.1895C142.827 82.1895 143.584 83.5216 143.584 83.9489C143.584 84.4014 142.676 84.2254 142.171 83.6724C141.918 83.3708 141.717 82.8933 141.742 82.6168C141.818 81.8125 139.849 80.4301 138.941 80.6061C138.36 80.7317 138.26 80.6563 138.335 80.2793C138.386 80.0028 138.159 79.6761 137.73 79.4499C137.048 79.0729 136.998 79.0729 136.216 79.8772C135.458 80.6312 135.433 80.7317 135.812 80.9579C136.064 81.0836 136.342 81.2093 136.443 81.2093C136.67 81.1841 137.073 82.4911 136.897 82.6671C136.821 82.7173 136.443 82.4911 136.064 82.1141C135.408 81.4858 135.332 81.4606 134.802 81.8376C134.272 82.1895 134.247 82.1895 134.373 81.5109C134.424 81.1339 134.55 80.0531 134.626 79.098L134.777 77.414H134.096C133.515 77.414 133.465 77.3637 133.768 77.0118C134.045 76.66 133.995 76.5343 133.49 76.1573C132.859 75.6797 132.859 75.6797 132.683 76.3583C132.557 76.7856 132.607 77.1626 132.834 77.414C133.263 77.8915 133.187 80.2542 132.758 80.782C132.557 81.0082 132.178 81.1841 131.875 81.1841C131.547 81.1841 130.815 81.6868 130.134 82.3906C129.074 83.4714 128.973 83.6473 129.301 83.9489C129.528 84.1249 129.705 84.5522 129.705 84.904C129.705 85.2308 129.831 85.9597 130.008 86.4875C130.235 87.2918 130.235 87.5432 129.907 87.895C129.226 88.6993 128.191 91.0117 128.191 91.7657C128.191 92.1679 128.065 92.7208 127.913 92.9722C127.434 93.7011 127.838 94.7567 128.544 94.7567C128.898 94.7567 129.2 94.8824 129.251 95.0583C129.327 95.2594 129.579 95.2343 130.159 94.9578C130.891 94.5808 131.017 94.5808 131.976 95.0583C133.112 95.6364 133.995 96.5915 133.995 97.2953C133.995 98.2001 133.541 97.9739 132.96 96.7675C132.355 95.5359 132.355 95.5359 131.068 95.5108C129.957 95.5108 129.705 95.6113 128.973 96.3653C128.166 97.1948 128.141 97.2953 128.292 98.6274L128.469 100.01L127.333 101.241C126.702 101.92 126.172 102.699 126.172 102.976C126.172 103.328 125.895 103.604 125.365 103.805C124.911 103.981 124.305 104.207 124.027 104.308C123.75 104.433 123.27 104.609 122.967 104.685C122.614 104.785 122.387 105.037 122.387 105.338C122.387 105.916 121.832 105.967 121.378 105.439C121.201 105.238 120.848 105.062 120.595 105.062C119.965 105.062 118.652 104.258 118.173 103.579C117.618 102.775 117.946 102.674 118.854 103.328C119.51 103.805 119.712 103.855 120.116 103.604C120.394 103.453 120.772 103.378 120.999 103.453C121.731 103.755 122.538 103.302 123.321 102.197C123.775 101.543 124.557 100.864 125.087 100.613C125.92 100.236 126.046 100.035 126.122 99.2307C126.172 98.6023 126.374 98.2001 126.778 97.9237C127.636 97.3707 127.737 96.4156 127.03 95.737C126.298 95.0583 126.273 94.3546 126.929 92.2936C127.207 91.4138 127.434 90.3833 127.434 90.0063C127.434 89.6544 127.712 88.9507 128.04 88.448C128.393 87.9453 128.797 86.8394 128.948 85.9848C129.2 84.6024 129.175 84.3511 128.822 83.9489C128.292 83.3708 128.494 82.5917 129.453 81.5612C129.831 81.1339 130.235 80.405 130.336 79.9274C130.437 79.4499 130.639 78.8969 130.765 78.721C130.942 78.5199 130.942 78.0675 130.714 77.2883C130.437 76.2829 130.311 76.1573 129.68 76.1573C129.301 76.1573 128.898 76.0316 128.822 75.9059C128.746 75.7551 128.418 75.6546 128.09 75.6546C127.762 75.6546 127.308 75.4284 127.055 75.1519C126.652 74.6995 126.576 74.6995 125.97 75.1016C125.617 75.3278 124.961 76.3332 124.406 77.5397C123.396 79.7012 122.488 80.6815 120.949 81.2344C120.267 81.4858 119.914 81.8125 119.586 82.5665C119.182 83.4211 119.182 83.6222 119.485 83.8484C119.788 84.0746 119.788 84.2505 119.485 85.1051C119.283 85.6329 119.132 86.2362 119.107 86.4372C119.107 86.6383 118.753 87.0907 118.324 87.4677C117.542 88.0961 117.542 88.1212 117.921 88.9004C118.148 89.3277 118.526 89.7298 118.753 89.8304C119.056 89.9561 119.132 90.1823 119.006 90.8106C118.905 91.3887 119.006 91.8663 119.384 92.4695C119.838 93.2487 119.864 93.3492 119.51 93.5503C119.283 93.6759 119.107 94.053 119.107 94.3797C119.107 94.7065 118.98 95.0583 118.829 95.1589C118.476 95.3599 118.097 94.807 118.097 94.1032C118.097 93.8016 117.542 92.8465 116.836 91.9668C116.154 91.0871 115.372 90.0315 115.145 89.6293C114.413 88.4229 111.006 84.8286 110.653 84.904C110.476 84.9292 110.199 84.7784 110.022 84.5773C109.82 84.3259 109.492 84.2505 109.089 84.3511C108.533 84.5019 108.483 84.4768 108.71 84.0243C108.887 83.7227 108.887 83.396 108.735 83.1698C108.609 82.9938 108.508 82.5665 108.508 82.2649C108.508 81.4858 107.978 80.4301 107.6 80.4301C107.423 80.4301 106.969 80.5558 106.616 80.7317C105.985 81.0082 105.96 81.1087 106.111 82.1644C106.212 82.7676 106.439 83.4211 106.641 83.6222C106.843 83.8233 106.994 84.0997 106.994 84.2254C106.994 84.3511 107.221 84.4516 107.499 84.4516C107.776 84.4516 108.003 84.5522 108.003 84.703C108.003 84.8286 107.903 84.9543 107.751 84.9543C107.625 84.9543 107.499 85.5827 107.499 86.3367C107.499 87.5432 107.448 87.7191 106.994 87.7191C106.717 87.7191 106.489 87.895 106.489 88.0961C106.489 88.3223 106.262 88.4731 105.859 88.4731C105.505 88.4731 105.152 88.6491 105.076 88.8501C104.975 89.0512 104.824 89.2272 104.698 89.2272C104.294 89.2272 104.445 88.5988 104.975 88.1464C105.253 87.9202 105.48 87.5683 105.48 87.3923C105.48 86.9148 104.572 86.1356 104.244 86.3116C104.117 86.4121 103.461 86.5629 102.78 86.6886C101.67 86.9148 101.543 86.8645 100.711 86.1608C99.8276 85.3816 99.3733 85.3313 97.0013 85.834C96.0929 86.0351 95.8405 85.8089 96.0676 85.0046C96.1686 84.6276 96.3957 84.4516 96.8247 84.4516C97.4051 84.4516 97.4303 84.3762 97.2789 83.6473C97.0265 82.5163 96.9761 82.4409 96.1686 82.4409C95.0835 82.4409 93.8722 82.9436 93.8722 83.396C93.847 83.7479 93.7965 83.7479 93.4685 83.3206C93.2414 83.019 92.7619 82.8179 92.1563 82.7676C88.0936 82.5414 86.5543 82.5163 86.5543 82.7173C86.5543 82.8179 86.3776 82.8681 86.1758 82.7927C85.9739 82.6922 85.3935 82.7173 84.914 82.7927C84.2579 82.9184 84.0308 83.0944 84.0308 83.4462C84.0308 84.2505 83.2233 84.5019 82.0626 84.0495C81.1541 83.6724 81.0532 83.5468 80.9018 82.5163C80.6494 80.5558 80.6747 80.4804 81.6588 80.2793C82.3906 80.1536 82.6682 80.229 83.1729 80.7066L83.7785 81.2847L84.3336 80.7569C84.6869 80.405 84.8888 79.7766 84.9897 78.9723C85.0907 77.9167 84.9897 77.5648 84.5103 76.861C83.0972 74.8503 82.3906 74.1465 81.7345 74.1465C81.1036 74.1465 81.0784 74.1716 81.2046 75.4786C81.3055 76.7102 81.2551 76.861 80.6494 77.238C80.2962 77.4894 79.9933 77.8413 79.9933 78.0423C79.9933 78.2686 79.7158 78.545 79.3877 78.6958C78.7316 78.9975 78.2269 79.8772 78.2269 80.7066C78.2269 82.3152 76.2082 83.5468 75.4511 82.3906C75.2493 82.089 74.8203 81.536 74.5427 81.1841C74.0128 80.5809 73.9371 80.5809 72.8268 80.8825C71.8426 81.1339 71.5398 81.1339 70.9594 80.8323C70.4547 80.5558 70.1267 80.5558 69.7734 80.7317C69.5211 80.8825 68.764 80.9831 68.0827 80.9579L66.8715 80.9328V81.913C66.8715 82.466 66.7201 83.019 66.4929 83.1949C66.2658 83.3708 66.1397 83.7479 66.1649 84.0495C66.2154 84.4516 66.1144 84.5522 65.7359 84.5019C65.4583 84.4516 65.1303 84.2505 64.9789 84.0243C64.8527 83.7981 64.4742 83.3206 64.1714 82.9436C63.7929 82.466 63.4901 81.6114 63.2882 80.3296C63.0106 78.4948 62.9601 78.4194 62.3293 78.4194C61.2947 78.4194 60.5629 79.3745 60.5629 80.7569C60.5629 81.3852 60.6638 81.9884 60.8152 82.0639C61.2694 82.3403 61.0928 83.3206 60.5376 83.6724C60.0329 83.9741 59.9068 83.9238 59.0993 83.0944C58.2665 82.2901 58.2161 82.1644 58.5189 81.5863C58.7965 81.0836 58.7965 80.782 58.4684 79.852C58.1151 78.7964 58.1151 78.6707 58.5441 78.2937C58.7965 78.0675 59.074 77.4642 59.175 76.9616C59.3769 75.9059 60.1843 74.9005 60.8657 74.9005C61.7489 74.9005 62.9601 72.0352 62.3797 71.3063C62.0517 70.9042 62.304 69.371 62.7078 69.371C62.8844 69.371 63.1115 69.7731 63.1872 70.2507C63.4144 71.4069 64.9284 74.6995 65.4583 75.1268C65.6854 75.3027 65.8621 75.8305 65.8621 76.3081C65.8621 77.238 66.6948 78.0172 68.6379 78.8969C70.1267 79.5755 72.9782 79.3996 73.8866 78.5702C75.5268 77.1124 76.5615 73.4679 75.6278 72.4374C75.1231 71.8593 74.896 70.6277 74.8455 67.9383C74.8203 66.0532 74.7446 65.6008 74.2399 64.9976C73.9371 64.5954 73.6847 64.0173 73.6847 63.6655C73.6847 63.3387 73.5081 63.012 73.3062 62.9366C73.1043 62.836 72.9277 62.5344 72.9277 62.2328C72.9277 61.9563 72.5997 61.4285 72.1959 61.0766C71.7922 60.7247 71.4137 60.0964 71.3127 59.6188C71.1865 58.8648 71.4641 58.5129 71.7922 59.0659C71.8679 59.1915 72.1707 59.4429 72.4483 59.5937C72.9529 59.845 72.9529 59.7948 72.7763 58.6386C72.5744 57.3065 72.3726 57.0551 71.3127 57.0551C70.6819 57.0551 70.6061 57.0048 70.7576 56.3765C70.9342 55.723 70.9342 55.723 70.3033 56.1503C69.8491 56.4268 69.5211 56.477 69.2183 56.3262C68.9659 56.2005 68.1836 55.9743 67.4771 55.7984C66.2154 55.5219 66.1144 55.547 64.2471 56.477L62.3293 57.407V58.7643C62.3293 59.4931 62.1526 60.4231 61.9508 60.8253C61.5975 61.529 61.4461 61.5793 60.2096 61.5793C58.9479 61.5793 58.7965 61.6547 57.9385 62.5847C57.4338 63.1376 57.0301 63.766 57.0301 64.0173C57.0301 64.2436 56.6263 65.1233 56.1469 66.003C55.516 67.1089 55.1375 67.5362 54.8851 67.4608C54.6833 67.3854 54.0272 67.6618 53.4468 68.0891C52.8664 68.5164 52.1851 68.8683 51.9327 68.8683C51.5794 68.8683 51.4785 69.0694 51.4785 69.748C51.4785 70.3009 51.3271 70.7031 51.1 70.7785C50.8981 70.879 50.7215 71.2309 50.7215 71.6331C50.7215 72.5379 49.9897 73.1411 48.9046 73.1411C48.0214 73.1411 48.0214 73.1411 47.8447 74.4481C47.769 75.177 47.6933 76.2578 47.6933 76.861C47.6933 78.4948 47.2896 78.5953 39.8202 78.6958C36.3631 78.7461 33.5621 78.8466 33.5621 78.8969C33.5621 78.9723 33.8144 79.2739 34.1172 79.6007C34.5715 80.0782 34.6472 80.4301 34.5967 81.4858C34.5462 82.5665 34.6219 82.843 35.0761 83.1949C35.4547 83.4714 35.6061 83.7981 35.5304 84.2254L35.4294 84.8286L35.1266 84.1249C34.95 83.6976 34.4705 83.2703 33.9406 83.0441C33.4612 82.843 33.0574 82.5917 33.0574 82.466C33.0574 82.3655 32.7546 82.1393 32.3761 81.9633C31.7452 81.6868 31.619 81.712 31.1648 82.2398C30.8872 82.5665 30.3321 82.843 29.9031 82.8681C28.0862 82.9938 27.2787 83.2703 26.6479 83.9741C26.2694 84.3762 25.8404 84.703 25.6385 84.703C25.4366 84.703 25.159 85.0297 25.0076 85.457C24.831 86.0099 24.6039 86.211 24.1497 86.211C23.4179 86.211 22.7113 86.9399 22.7113 87.6437C22.7113 88.0207 22.4085 88.3223 21.7019 88.6491C20.8692 89.0261 20.6926 89.202 20.7683 89.6796C20.844 90.0817 20.5916 90.5844 20.0365 91.2882C19.0271 92.4695 19.0019 92.746 19.7084 94.0027C20.1626 94.807 20.2131 95.0835 19.986 95.737C19.7336 96.4156 19.7841 96.5161 20.2636 96.6669C21.1468 96.9183 21.7019 97.5466 21.7019 98.2504C21.6767 98.9542 20.5159 100.387 19.7589 100.638C19.4308 100.739 19.0776 101.442 18.5729 103.001C18.1691 104.207 17.7654 105.363 17.6392 105.615C17.513 105.891 17.5635 106.143 17.8158 106.344C18.2196 106.67 18.1186 108.204 17.6644 108.681C17.2859 109.083 16.2765 108.606 15.8476 107.827C15.3176 106.897 14.4344 106.872 13.9802 107.776C13.8288 108.103 13.3494 108.731 12.9204 109.159C11.6334 110.516 11.5072 110.994 12.1381 111.873C12.5419 112.451 12.8194 112.602 13.2232 112.502C13.6017 112.401 13.8793 112.527 14.0559 112.854C14.2326 113.105 14.6111 113.356 14.9391 113.406C16.2513 113.582 16.4532 116.448 15.1915 117.001C14.8886 117.126 14.5606 117.428 14.5101 117.654C14.4344 117.906 14.1821 118.157 13.9802 118.232C13.6522 118.358 13.7026 118.559 14.2578 119.464C15.0401 120.821 15.0653 121.575 14.283 122.631C13.6269 123.51 13.6522 124.239 14.384 124.742C14.6111 124.918 14.8886 125.295 14.9896 125.597C15.0905 125.898 15.6709 126.552 16.3018 127.054C17.3869 127.959 17.4373 128.035 17.3869 129.191C17.3364 130.272 17.4121 130.523 18.2448 131.428C18.7495 132.006 19.1785 132.609 19.1785 132.81C19.1785 132.986 19.3551 133.288 19.557 133.464C19.7589 133.64 19.9355 134.017 19.9355 134.318C19.9355 134.62 20.0617 134.997 20.2131 135.148C20.7178 135.65 20.2131 136.48 19.3804 136.48C18.4215 136.48 16.9074 137.837 16.8822 138.742C16.8822 139.119 16.6046 139.597 16.1251 139.974L15.3681 140.577L14.384 139.622C13.6017 138.868 13.2232 138.692 12.2895 138.616C11.0783 138.541 9.7156 139.144 9.43802 139.873C9.28662 140.25 10.2203 141.23 10.7502 141.255C10.8764 141.255 11.2297 141.431 11.5072 141.658C11.9867 142.035 11.9867 142.035 11.4568 141.884C11.1792 141.808 10.4222 141.708 9.79131 141.658C9.16045 141.607 8.35295 141.381 7.99967 141.13C6.93982 140.451 6.46037 140.778 6.66224 142.135L6.83888 143.266H5.47623C4.44162 143.266 3.93693 143.392 3.40701 143.819L2.70045 144.372L2.24623 143.819C1.74154 143.166 0.959274 143.115 0.479821 143.668C-0.0501007 144.322 -0.0248663 146.408 0.53029 147.137C0.782634 147.464 1.00974 148.067 1.00974 148.469C1.00974 148.871 1.23685 149.625 1.51443 150.178C1.89295 150.932 2.01912 151.661 2.01912 153.27C2.01912 155.331 2.27146 156.336 2.80138 156.336C3.45748 156.336 5.80427 159.629 5.80427 160.533C5.80427 160.709 6.23326 161.137 6.76318 161.489C7.82302 162.192 9.08474 163.901 9.08474 164.63C9.08474 164.882 9.26138 165.208 9.46326 165.384C9.66513 165.56 9.84177 166.063 9.84177 166.515C9.84177 167.42 10.3717 167.998 11.4063 168.25C11.7848 168.325 12.2895 168.677 12.5166 169.029C12.7437 169.381 13.097 169.657 13.2736 169.657C13.4755 169.657 13.6269 169.783 13.6269 169.959C13.6269 170.11 13.8036 170.436 14.0307 170.688C14.3587 171.065 14.384 171.266 14.1316 171.97C13.854 172.699 13.8793 172.925 14.3587 173.679C14.6363 174.156 14.8886 174.81 14.8886 175.137C14.8886 175.438 15.0401 175.765 15.2167 175.84C15.4186 175.916 15.7719 176.871 16.0494 178.002C16.4027 179.535 16.6551 180.063 17.0336 180.214C17.7401 180.49 20.2383 180.339 20.8944 179.988C21.5001 179.661 21.6262 178.756 21.4748 175.262C21.3991 173.754 21.5001 173.277 21.9795 172.447C22.2823 171.869 22.6356 171.417 22.7618 171.417C22.8627 171.417 22.9636 171.291 22.9636 171.115C22.9636 170.964 23.1403 170.638 23.3422 170.411C23.5693 170.16 23.7964 169.406 23.8973 168.677C24.0235 167.647 23.9478 167.295 23.5945 166.892C22.8879 166.113 23.2665 165.711 24.9319 165.51C26.1936 165.359 26.5722 165.208 27.4049 164.404L28.3638 163.449L29.1461 163.901C30.1554 164.53 33.8144 164.58 34.4201 163.977C34.9247 163.474 34.9247 163.449 34.3191 162.695C33.6126 161.815 33.6378 161.237 34.3444 161.665C34.7733 161.941 34.8995 161.916 35.2276 161.489C35.5051 161.112 35.5556 160.508 35.4294 158.724C35.278 156.613 35.2023 156.411 34.4201 155.582C33.6378 154.727 33.6126 154.652 33.8649 153.672C34.1172 152.742 34.092 152.566 33.5873 151.912L33.0069 151.183L33.6883 150.631C34.0415 150.304 34.5715 150.052 34.849 150.052C35.6061 150.052 36.3379 149.6 36.3379 149.122C36.3379 148.494 37.5996 147.288 38.2557 147.288C38.5585 147.288 39.0379 147.011 39.3155 146.659C39.5931 146.307 39.9969 146.031 40.1987 146.031C40.5268 146.031 40.5772 146.257 40.4511 147.212C40.2997 148.595 40.7286 149.198 41.9904 149.349C42.6212 149.424 42.7979 149.273 43.2773 148.419C43.8072 147.514 43.9586 147.413 44.9428 147.338C45.5484 147.288 46.255 147.061 46.5073 146.835C46.8858 146.508 47.0877 146.483 47.8195 146.76C48.7784 147.087 49.5859 146.961 50.2925 146.333C50.9233 145.78 51.5794 146.207 51.7308 147.313C51.857 148.117 51.9075 148.167 52.8916 148.167C53.9262 148.167 54.759 148.595 54.759 149.148C54.759 149.298 55.1627 149.65 55.6926 149.927C56.4749 150.354 56.6768 150.681 57.2067 152.315C57.7114 153.848 57.7619 154.275 57.5095 154.727C57.3581 155.054 57.2824 155.481 57.3581 155.683C57.56 156.21 58.4432 156.185 58.7965 155.632C59.0236 155.23 59.074 155.23 59.4778 155.733C59.7301 156.034 60.0582 156.487 60.2096 156.738C60.5124 157.266 62.1779 157.316 63.0863 156.839C63.5153 156.613 63.7676 156.663 64.4237 157.065C64.8779 157.341 65.3574 157.794 65.534 158.07C65.8116 158.498 65.9378 158.523 66.7201 158.297C67.7799 157.97 68.3855 158.322 68.3855 159.252C68.3855 159.578 68.7893 160.408 69.294 161.112C70.051 162.167 70.3286 162.368 71.0099 162.368C71.4641 162.368 71.9436 162.243 72.0697 162.117C72.2464 161.941 72.4987 162.117 72.8772 162.62C73.3819 163.273 73.609 163.374 74.7194 163.374C75.8801 163.374 76.1072 163.273 76.8643 162.444C77.8484 161.388 77.8736 161.288 77.3437 160.86C77.1419 160.684 76.9652 160.408 76.9652 160.232C76.9652 160.056 76.5615 159.428 76.082 158.875C75.0979 157.668 75.1483 157.115 76.2334 157.14C77.2428 157.165 77.7727 156.613 77.7979 155.431C77.8484 154.526 77.9241 154.451 78.6307 154.376C79.1354 154.325 79.5391 154.476 79.8672 154.828C80.4476 155.456 81.0532 155.481 81.6336 154.828C82.0878 154.325 82.0878 154.3 81.356 153.496C80.6242 152.717 80.5485 152.365 80.7251 150.605C80.7756 150.128 81.6083 150.253 82.5925 150.907C83.3243 151.41 83.8794 151.535 85.8225 151.636C87.1347 151.711 88.6992 151.887 89.3301 152.063C90.7936 152.44 91.5254 152.44 92.2572 152.038C92.7115 151.812 93.0143 151.787 93.4937 152.013C93.847 152.189 94.8059 152.315 95.5882 152.315C96.3704 152.315 97.1779 152.415 97.3546 152.516C97.7583 152.767 100.307 152.289 100.736 151.862C101.14 151.46 101.745 151.485 102.351 151.938C102.603 152.139 103.133 152.315 103.487 152.315C103.865 152.315 104.218 152.465 104.294 152.666C104.37 152.842 104.824 153.069 105.303 153.169C105.884 153.27 106.237 153.496 106.313 153.848C106.489 154.501 106.237 156.11 105.909 156.512C105.783 156.688 105.758 157.115 105.833 157.442C106.01 158.171 107.196 158.523 107.978 158.121C108.609 157.769 108.836 158.095 108.609 158.95C108.483 159.503 108.559 159.629 109.139 159.855C109.618 160.031 109.921 160.031 110.148 159.855C110.35 159.679 110.704 159.704 111.259 159.93L112.066 160.257L111.461 160.533C110.88 160.81 110.401 161.991 110.704 162.444C110.779 162.569 111.259 162.62 111.763 162.569C112.268 162.494 112.874 162.569 113.101 162.72C113.429 162.896 113.757 162.871 114.438 162.544C114.943 162.318 115.498 162.117 115.675 162.117C115.851 162.117 116.205 161.891 116.457 161.614C116.76 161.288 117.239 161.112 117.845 161.112C118.4 161.112 119.056 160.91 119.409 160.609C120.015 160.156 120.368 160.156 120.368 160.659C120.368 160.785 120.091 160.986 119.737 161.112C118.854 161.438 118.854 162.544 119.737 162.871C120.091 162.997 120.595 163.474 120.823 163.927C121.05 164.354 121.605 165.108 122.034 165.611C122.942 166.666 123.396 167.848 123.396 169.155C123.396 169.682 123.573 170.235 123.775 170.411C123.977 170.587 124.153 171.015 124.153 171.392C124.153 171.743 124.381 172.422 124.658 172.874C124.936 173.327 125.163 173.855 125.163 174.056C125.163 174.659 125.945 176.795 126.324 177.223C126.828 177.776 127.913 177.524 128.241 176.795C128.62 175.991 129.453 175.991 129.453 176.795C129.453 177.575 130.765 178.706 131.471 178.53C131.749 178.454 132.128 178.53 132.329 178.681C132.733 179.032 134.121 178.781 134.525 178.303C134.676 178.102 135.004 177.952 135.231 177.977C135.913 178.002 137.906 179.585 137.982 180.163C138.032 180.465 138.613 181.269 139.294 181.973C139.975 182.677 140.556 183.506 140.606 183.808C140.657 184.235 140.985 184.461 142.07 184.813C143.332 185.215 143.533 185.215 144.442 184.864C144.972 184.637 145.426 184.487 145.477 184.537C145.502 184.587 145.779 185.09 146.107 185.668C146.89 187.075 148 187.327 149.236 186.372C149.817 185.944 150.372 185.743 151.079 185.743C151.709 185.743 152.239 185.592 152.416 185.341C152.618 185.14 153.123 184.813 153.602 184.612C154.056 184.411 154.435 184.084 154.435 183.883C154.435 183.657 154.637 183.481 154.914 183.481C155.167 183.481 155.545 183.28 155.722 183.054C156.327 182.325 158.296 181.219 159.002 181.219C159.456 181.219 159.709 181.068 159.81 180.716C159.885 180.39 160.163 180.214 160.567 180.214C160.895 180.214 161.324 180.038 161.5 179.837C161.929 179.334 162.106 179.359 163.014 180.113C163.696 180.691 163.872 180.742 164.428 180.49C165.412 180.063 165.689 180.138 167.052 181.345C168.566 182.702 169.5 182.953 173.234 183.129L176.111 183.28L177.398 182.174C178.407 181.294 178.66 180.943 178.66 180.314C178.66 179.887 178.483 179.384 178.281 179.208C178.079 179.032 177.903 178.58 177.903 178.203C177.903 177.826 177.726 177.374 177.524 177.198C177.07 176.821 177.272 175.79 177.928 175.036C178.206 174.76 178.407 174.408 178.407 174.282C178.407 174.131 178.735 173.704 179.139 173.327C179.846 172.648 179.921 172.648 180.451 173.025C180.779 173.251 181.511 173.427 182.092 173.427C182.773 173.427 183.278 173.578 183.555 173.905C183.908 174.307 184.136 174.332 184.968 174.131C186.962 173.628 188.325 174.357 189.561 176.67C190.066 177.575 191.706 178.429 192.968 178.454C194.406 178.454 196.425 177.901 197.03 177.348C197.838 176.645 200.866 176.192 202.128 176.619C202.607 176.795 203.667 176.921 204.449 176.921C205.761 176.946 205.963 177.022 206.443 177.7C207.276 178.781 208.159 178.982 210.96 178.706C215.603 178.203 215.552 178.228 216.637 177.172C217.193 176.645 218.051 176.041 218.53 175.84C219.767 175.338 221.558 173.729 221.558 173.151C221.558 172.573 223.148 170.763 224.082 170.286C224.662 169.984 224.864 170.009 225.772 170.411L226.782 170.864L228.069 170.16C229.255 169.506 229.507 169.481 230.945 169.657C233.444 169.934 235.084 169.205 235.816 167.471C236.017 166.993 236.446 166.541 236.825 166.39C237.683 166.063 237.683 164.932 236.8 163.625C236.219 162.77 236.169 162.519 236.396 161.941C236.547 161.539 236.724 160.483 236.825 159.528C236.901 158.598 237.077 157.568 237.229 157.266C237.607 156.411 237.128 154.828 236.194 153.948C235.538 153.32 235.361 153.244 234.932 153.521C234.327 153.898 234.327 153.848 234.857 152.113C235.235 150.982 235.488 150.605 236.32 150.078C236.901 149.726 237.885 148.997 238.541 148.444C239.777 147.438 240.888 147.087 243.386 146.885C244.092 146.835 245.379 146.735 246.288 146.634C247.802 146.508 248.029 146.559 249.013 147.187C249.594 147.564 250.073 148.042 250.073 148.218C250.073 148.419 250.401 148.695 250.78 148.871C251.89 149.349 253.555 150.806 253.707 151.435C253.808 151.837 254.111 152.088 254.615 152.189C255.372 152.365 257.492 154.225 258.224 155.356C258.754 156.21 260.015 156.487 261.252 155.959C261.731 155.758 262.211 155.481 262.312 155.331C262.514 155.004 265.34 155.004 266.576 155.356C267.258 155.557 267.611 155.557 267.813 155.356C267.964 155.205 268.267 155.079 268.494 155.079C269.074 155.079 270.261 156.386 270.261 157.04C270.261 157.417 270.563 157.744 271.27 158.095C272.557 158.749 273.541 158.749 273.718 158.095C273.793 157.819 273.97 157.593 274.147 157.593C274.298 157.593 275.03 157.191 275.736 156.713C276.897 155.934 277.049 155.758 276.922 155.13C276.821 154.627 277.023 154.049 277.679 152.943C279.395 150.002 279.547 149.952 280.96 151.51C281.793 152.44 281.919 152.666 281.666 153.018C281.086 153.823 281.061 154.099 281.515 154.602C282.07 155.205 282.676 156.738 282.726 157.618C282.726 157.97 282.878 158.422 283.029 158.623C283.382 159.051 283.66 160.358 283.736 161.74C283.761 162.293 283.912 162.972 284.064 163.273C284.493 164.002 283.862 164.882 282.903 164.882C281.969 164.882 280.859 165.761 280.859 166.49C280.859 166.792 280.581 167.32 280.228 167.647C279.345 168.476 279.37 169.532 280.279 169.959C280.657 170.135 281.212 170.663 281.49 171.115C281.767 171.593 282.474 172.523 283.08 173.201C284.24 174.584 284.392 175.287 283.761 176.77C283.206 178.102 283.281 178.681 284.038 178.957C285.199 179.409 285.553 178.731 285.83 175.614C285.931 174.433 286.007 174.207 286.284 174.433C286.713 174.785 287.168 174.558 287.168 173.98C287.168 173.679 287.243 173.654 287.47 173.88C287.899 174.307 288.429 174.257 289.641 173.679C290.196 173.402 290.902 173.176 291.155 173.176C291.483 173.176 291.861 172.673 292.467 171.492C292.921 170.537 293.501 169.481 293.754 169.129C294.157 168.551 294.208 167.898 294.208 162.72C294.208 159.126 294.309 156.487 294.511 155.758C294.839 154.376 294.536 151.686 293.703 148.871C293.022 146.559 292.669 143.869 292.719 141.054C292.77 138.792 292.744 138.717 291.987 137.837C291.558 137.36 291.028 136.555 290.827 136.053C290.372 134.947 289.312 133.489 287.445 131.378C285.855 129.568 285.477 128.738 285.199 126.677C284.947 124.893 284.972 124.893 287.168 125.848C288.253 126.3 288.833 126.728 289.085 127.23C289.312 127.633 290.297 128.839 291.306 129.895C293.274 131.981 294.208 133.212 294.662 134.268C294.839 134.645 295.495 135.223 296.227 135.6C297.135 136.103 297.716 136.681 298.372 137.711C298.851 138.491 299.583 139.446 300.012 139.848C300.441 140.275 300.794 140.778 300.794 141.004C300.794 141.205 301.475 142.06 302.308 142.889C303.57 144.146 303.898 144.347 304.276 144.121C304.933 143.693 304.907 143.216 304.201 142.16C303.847 141.632 303.57 140.954 303.62 140.677C303.721 140.024 304.933 139.647 305.891 139.974C307.128 140.401 307.254 139.37 306.068 138.39C305.21 137.661 304.605 137.561 304.1 138.038C303.847 138.315 303.696 138.264 303.393 137.787C303.166 137.485 302.788 137.234 302.535 137.234C302.283 137.234 302.005 137.108 301.93 136.983C301.854 136.832 301.45 136.731 301.072 136.731C300.643 136.731 299.987 136.404 299.331 135.826C298.498 135.123 298.271 134.771 298.271 134.142C298.271 133.69 297.993 132.911 297.64 132.408C296.933 131.378 296.757 129.694 297.362 129.694C297.892 129.694 299.028 128.688 299.028 128.236C299.028 127.984 298.624 127.607 298.069 127.356C296.656 126.677 294.864 125.597 294.385 125.094C294.132 124.843 293.527 124.415 292.997 124.139C292.492 123.862 291.685 123.36 291.205 123.008C290.726 122.656 290.019 122.304 289.666 122.229C288.808 122.078 287.369 120.62 286.587 119.137C286.158 118.308 285.805 117.981 285.199 117.83C284.745 117.704 284.215 117.327 283.988 117.001C283.761 116.649 283.357 116.372 283.105 116.372C282.852 116.372 282.398 116.02 282.07 115.618C281.54 114.889 279.774 114.11 279.446 114.437C279.345 114.512 279.37 114.99 279.446 115.493C279.597 116.196 279.723 116.372 280.203 116.372C280.581 116.372 281.036 116.699 281.465 117.252L282.146 118.132H281.54C281.01 118.132 280.909 118.283 280.758 119.137C280.632 119.916 280.455 120.218 279.951 120.394C279.093 120.721 278.007 120.721 277.654 120.369C277.478 120.193 276.746 120.117 275.762 120.193C274.55 120.268 273.919 120.469 273.087 120.997L272.027 121.726L272.784 123.108C273.692 124.792 273.692 124.868 272.986 124.968C272.658 125.019 272.305 125.295 272.153 125.622C271.85 126.3 271.522 126.351 271.522 125.697C271.522 125.421 271.169 124.868 270.74 124.415C270.109 123.812 269.882 123.712 269.604 123.938C269.201 124.265 269.125 125.32 269.503 125.546C269.655 125.622 269.756 125.898 269.756 126.124C269.731 126.652 268.671 125.446 268.09 124.214C267.863 123.787 267.611 123.41 267.51 123.41C267.409 123.41 267.005 123.762 266.602 124.164C266.198 124.566 265.718 124.918 265.491 124.918C265.289 124.918 264.936 125.094 264.684 125.32C264.431 125.546 264.103 125.647 263.977 125.546C263.624 125.345 263.901 122.731 264.33 122.028C264.911 121.072 265.441 115.568 264.987 115.015C264.608 114.563 264.911 108.958 265.365 108.053C265.643 107.475 265.617 107.349 265.138 106.872C264.431 106.168 264.406 104.559 265.062 103.83C265.542 103.328 265.542 103.252 265.138 102.398C264.381 100.814 264.658 99.5071 266.198 97.5718C267.838 95.5108 269.1 94.254 269.554 94.254C269.806 94.254 270.361 94.0781 270.79 93.877C271.497 93.5 271.497 93.4497 271.144 92.8968C270.74 92.2936 270.866 91.9919 271.522 91.9919C272.103 91.9919 273.642 90.3582 273.415 89.9812C273.289 89.7801 273.339 89.7047 273.566 89.7801C273.768 89.8555 274.172 89.6796 274.475 89.4282L275.03 88.9255L274.5 88.2218C273.844 87.3169 274.096 86.5378 275.206 86.0602C275.686 85.8591 276.064 85.6078 276.064 85.4821C276.064 85.2811 278.184 83.9489 278.487 83.9489C278.537 83.9489 278.588 84.2505 278.588 84.6024C278.588 85.4067 279.118 85.9597 279.951 85.9597C280.48 85.9597 280.632 85.7837 280.884 84.8789C281.061 84.3008 281.414 83.6473 281.692 83.4211C282.121 83.0692 282.171 82.8179 282.045 81.8628C281.894 80.7569 281.919 80.7066 282.575 80.6312C283.08 80.5809 283.281 80.405 283.332 79.9274C283.382 79.5755 283.559 79.1734 283.736 79.0477C283.912 78.8969 284.114 78.4948 284.19 78.0926C284.316 77.4894 284.24 77.414 283.66 77.414C283.307 77.414 282.726 77.6402 282.373 77.9167C281.692 78.4194 281.111 78.2183 281.111 77.4642C281.111 77.238 280.884 76.8359 280.607 76.5343C280.253 76.1573 280.077 75.5038 279.951 74.1465C279.85 73.116 279.622 72.0352 279.446 71.7587C279.244 71.4823 279.093 70.879 279.093 70.3764C279.093 69.7731 278.941 69.3961 278.588 69.1699C277.982 68.818 277.881 67.2597 278.411 66.6313C278.613 66.4051 278.916 65.7013 279.067 65.073C279.345 64.0927 279.471 63.9168 279.875 64.0173C280.253 64.1179 280.455 63.9671 280.682 63.3638C280.96 62.6098 281.364 62.3082 281.364 62.836C281.364 63.1628 283.357 65.3495 283.66 65.3495C283.786 65.3495 283.887 65.0479 283.912 64.6457C283.912 64.0173 283.963 64.0425 284.367 64.9725L284.821 65.9778L285.149 64.9473C285.325 64.3692 285.401 63.389 285.3 62.6852C284.922 59.4931 284.821 58.9151 284.619 58.714C284.266 58.337 284.341 58.0605 284.77 58.0605C285.023 58.0605 285.149 57.8091 285.149 57.3065C285.149 56.7032 285.048 56.5524 284.594 56.5524C284.266 56.5524 283.534 56.1 282.979 55.547C282.045 54.6925 281.944 54.4914 282.095 53.7625C282.272 52.8325 282.878 52.4555 282.878 53.285C282.878 53.9384 285.124 56.2257 285.982 56.4268C286.335 56.5273 286.915 57.0551 287.294 57.6332C287.849 58.4878 287.95 58.8397 287.798 59.5686C287.697 60.0461 287.571 60.775 287.496 61.152C287.42 61.5793 287.496 62.0066 287.748 62.2831C288.152 62.7355 289.943 67.6618 289.943 68.3405C289.943 68.5667 290.246 69.195 290.625 69.7229C290.978 70.2758 291.533 71.7336 291.861 72.9903C292.341 74.9759 292.366 75.3278 292.063 75.6797C291.836 75.9311 291.76 76.3583 291.861 76.8359C291.937 77.2883 291.886 77.6653 291.735 77.7659C291.584 77.8664 291.457 78.2183 291.457 78.5702C291.457 78.9975 291.609 79.1734 291.937 79.1734C292.467 79.1734 293.224 80.1788 293.224 80.8825C293.224 81.159 293.4 81.5109 293.602 81.6868C293.804 81.8628 293.981 82.2649 293.981 82.5917C293.981 82.9687 294.561 83.8233 295.621 84.9794C296.53 85.9597 297.261 86.8394 297.261 86.9651C297.261 87.3923 299.86 88.7999 301.98 89.4785C303.191 89.8807 304.377 90.4085 304.579 90.6598C305.16 91.3384 306.169 91.9417 308.44 92.8968C309.576 93.3995 310.736 94.0027 311.039 94.2792C311.317 94.5305 311.746 94.7567 311.998 94.7567C312.225 94.7567 312.806 95.0332 313.26 95.3851C313.739 95.737 314.421 96.0134 314.875 96.0134C315.405 96.0134 315.809 96.2145 316.162 96.6669L316.692 97.3456V95.9883C316.692 95.2343 316.515 93.9524 316.313 93.123C316.111 92.2936 315.96 91.3133 315.935 90.9614C315.935 90.4587 315.481 89.8555 314.219 88.6742C312.251 86.8394 312.099 86.5378 312.301 85.2057C312.427 84.4516 312.579 84.2003 313.008 84.15C313.815 84.0243 313.739 82.9184 312.907 82.6922C310.989 82.1644 309.853 80.9579 309.5 79.098C309.349 78.1932 309.424 78.0423 310.383 77.1626C311.292 76.3332 311.367 76.1573 311.165 75.5792C310.812 74.6492 309.778 74.046 308.894 74.2219C308.415 74.3224 308.062 74.247 307.86 74.046C307.708 73.8449 307.33 73.6187 307.002 73.5433C306.396 73.3925 305.336 71.9095 305.336 71.2309C305.336 71.0298 305.513 70.8036 305.74 70.7031C305.942 70.6277 306.245 70.2758 306.371 69.9239C306.573 69.4212 306.497 69.195 306.068 68.6923C305.513 68.1143 304.251 67.888 303.974 68.3405C303.57 68.994 301.299 67.5864 301.299 66.6816C301.299 66.2794 299.583 64.4195 299.431 64.6457C298.826 65.5254 298.321 66.6816 298.422 66.9832C298.649 67.5613 298.145 67.4356 296.933 66.6062C295.697 65.7767 295.495 65.45 295.495 64.2938C295.495 63.6655 295.167 63.1628 293.981 61.9312C292.593 60.4985 292.492 60.2974 292.643 59.5183C292.719 59.0156 293.123 58.4124 293.628 57.9851C294.612 57.1557 294.687 56.9043 293.981 56.6781C293.703 56.5776 293.476 56.3011 293.476 56.0246C293.476 55.7481 293.35 55.2706 293.199 54.9689C292.921 54.4411 292.921 54.4411 293.375 54.8181C293.628 55.0192 294.157 55.3208 294.561 55.4968C295.192 55.7733 295.243 55.7481 295.243 55.1198C295.243 54.7679 295.015 54.0892 294.713 53.6368C294.284 52.9331 294.233 52.6566 294.46 51.8774C294.637 51.2491 294.637 50.8218 294.46 50.6207C294.284 50.4196 294.41 50.0426 294.839 49.3891C295.192 48.8864 295.545 48.2581 295.621 47.9816C295.823 47.4035 296.782 47.127 297.463 47.4789C297.867 47.68 298.069 47.6297 298.523 47.1019L299.129 46.4987L298.346 45.6692C297.539 44.8398 297.009 43.4323 297.009 42.1253C297.009 41.7483 296.731 41.0948 296.378 40.6926C296.05 40.2905 295.697 39.5364 295.621 39.0086C295.52 38.5059 295.243 37.3497 294.965 36.47C294.713 35.5903 294.486 34.2833 294.486 33.5796C294.46 32.8758 294.284 31.8453 294.082 31.2923C293.855 30.7394 293.653 30.0356 293.628 29.7089C293.577 29.4073 293.35 28.98 293.072 28.7789C292.618 28.427 292.618 28.427 293.173 28.4019C293.577 28.4019 293.829 28.1757 294.031 27.6479C294.183 27.1703 294.511 26.8436 294.889 26.743C295.369 26.6173 295.495 26.4163 295.495 25.7628C295.495 25.3103 295.318 24.7825 295.091 24.6066C294.864 24.4306 294.586 24.0034 294.46 23.7018C294.284 23.2242 294.157 23.1488 293.779 23.3499C293.527 23.5007 293.072 23.5258 292.77 23.4504C292.442 23.375 291.937 23.5007 291.558 23.752C291.205 23.9782 290.852 24.1039 290.776 24.0285C290.675 23.9531 290.448 24.0285 290.246 24.2044C289.943 24.4306 289.842 24.4306 289.767 24.1793C289.691 23.9782 289.111 23.8777 288.126 23.8777C286.814 23.8777 286.537 23.9531 286.108 24.5061C285.83 24.8579 285.401 25.1344 285.098 25.1344C284.619 25.1344 284.619 25.1344 285.149 24.2547C285.628 23.4755 285.654 23.2493 285.401 22.068C285.199 21.0124 284.871 20.4594 283.837 19.3786C282.6 18.1219 282.499 18.0465 281.566 18.1973C280.682 18.3481 280.581 18.2979 280.354 17.6946C280.203 17.3176 280.127 16.9909 280.152 16.9657C280.405 16.7646 282.373 16.6893 282.701 16.8652C282.979 17.0411 283.231 16.9155 283.635 16.4128C284.089 15.8347 284.165 15.5079 284.038 14.5528C283.837 13.095 284.114 12.8437 285.754 12.894C286.713 12.9442 287.041 12.8437 287.268 12.4667C288.177 10.9586 288.656 10.4559 289.439 10.2046C290.145 9.97836 290.347 9.75215 290.625 8.84732C290.801 8.19382 290.852 7.54033 290.726 7.21358C290.599 6.91197 290.549 6.38414 290.625 6.03226L290.726 5.4039L290.044 6.08253L289.363 6.76115L288.278 5.57985C287.496 4.72527 287.193 4.5242 287.168 4.85095C287.168 5.20282 287.067 5.2531 286.739 5.07715C286.461 4.90121 286.31 4.49907 286.31 3.8707C286.284 3.04126 286.209 2.91559 285.805 2.96587C285.401 3.04126 285.351 2.991 285.603 2.71452C285.83 2.4129 285.78 2.23697 285.275 1.75941C284.922 1.43266 284.644 0.904846 284.644 0.578094C284.644 -0.0753937 284.568 -0.0753937 283.584 0.351883ZM284.392 25.1344C284.392 25.2601 284.165 25.3858 283.862 25.3858C283.584 25.3858 283.433 25.2601 283.509 25.1344C283.584 24.9836 283.837 24.8831 284.038 24.8831C284.24 24.8831 284.392 24.9836 284.392 25.1344ZM283.887 26.3911C283.887 26.5168 283.761 26.6425 283.609 26.6425C283.483 26.6425 283.433 26.5168 283.509 26.3911C283.584 26.2403 283.71 26.1398 283.786 26.1398C283.837 26.1398 283.887 26.2403 283.887 26.3911ZM174.521 59.5183C173.966 59.644 173.764 59.4429 173.991 59.0659C174.118 58.8648 174.269 58.8899 174.547 59.1161C174.925 59.4177 174.9 59.4429 174.521 59.5183ZM180.578 71.7839C180.451 72.2614 180.527 72.3871 180.931 72.3871C181.713 72.3871 181.536 72.8144 180.451 73.493C179.896 73.8449 179.392 74.3476 179.291 74.6241C179.215 74.8754 178.836 75.1519 178.458 75.2022C178.079 75.2776 177.549 75.4284 177.272 75.554C176.818 75.73 176.818 75.7048 177.348 75.0513C177.65 74.6492 177.903 74.1968 177.903 73.9957C177.903 73.8198 178.256 73.6187 178.66 73.5182C179.19 73.3925 179.417 73.2165 179.417 72.8395C179.417 72.186 180.199 70.879 180.502 71.055C180.628 71.1304 180.653 71.4571 180.578 71.7839ZM134.651 84.2254C134.853 84.4265 135.004 84.7281 135.004 84.8789C135.004 85.0297 135.156 85.2057 135.332 85.2811C135.534 85.3565 135.509 85.457 135.206 85.5827C134.979 85.6832 134.525 85.5575 134.146 85.3313C133.616 84.9794 133.49 84.703 133.49 83.8484C133.49 82.5163 133.793 82.1644 134.096 83.1195C134.222 83.4965 134.474 83.9992 134.651 84.2254ZM281.843 120.695C281.995 120.871 282.449 121.424 282.878 121.927C283.761 122.983 283.862 123.661 283.13 123.661C282.827 123.661 282.474 123.36 282.247 122.907C281.995 122.43 281.666 122.153 281.338 122.153C280.884 122.153 280.834 122.103 281.137 121.751C281.389 121.449 281.389 121.248 281.162 120.871C280.909 120.494 280.935 120.394 281.237 120.394C281.439 120.394 281.717 120.545 281.843 120.695Z" fill="#03A06C"/>
<path d="M256.356 8.92269C255.548 9.45051 255.422 9.67672 255.271 10.858C255.12 12.0394 255.195 12.3661 255.75 13.3715C256.482 14.7036 257.214 15.0052 257.921 14.3015C258.173 14.0501 258.425 13.7485 258.425 13.6228C258.854 11.2099 258.753 9.04836 258.198 8.64621C257.618 8.19379 257.416 8.21893 256.356 8.92269Z" fill="#03A06C"/>
<path d="M118.602 29.4575C118.374 29.9099 118.4 30.2115 118.702 30.7896C119.03 31.3928 119.03 31.5688 118.753 31.7196C118.147 32.0715 118.602 33.1774 119.51 33.6298C120.317 34.0068 120.696 34.5849 120.721 35.4395C120.746 35.7662 122.361 36.5203 122.614 36.2941C122.664 36.2438 122.437 35.9673 122.109 35.6908C121.604 35.2887 121.554 35.163 121.882 34.9619C122.185 34.7609 122.185 34.6352 121.781 34.2079C121.503 33.9063 121.15 33.6801 120.948 33.6801C120.746 33.6801 120.671 33.5544 120.746 33.4287C120.822 33.2779 121.453 33.1774 122.109 33.1774C123.497 33.1774 124.456 32.4736 123.926 31.8201C123.699 31.5437 123.825 31.3426 124.582 30.7645C125.516 30.0607 125.516 30.0607 124.91 29.8848C123.901 29.6083 123.648 29.6334 123.648 30.0356C123.648 30.2618 123.421 30.4126 123.043 30.4126C122.689 30.4126 122.336 30.5383 122.26 30.664C122.16 30.8148 121.882 30.664 121.579 30.2869C121.276 29.9099 120.822 29.6586 120.444 29.6586C120.065 29.6586 119.586 29.4826 119.333 29.2564C118.904 28.8794 118.854 28.8794 118.602 29.4575ZM120.368 31.418C120.368 31.5437 120.191 31.6693 119.989 31.6693C119.788 31.6693 119.611 31.5437 119.611 31.418C119.611 31.2672 119.788 31.1666 119.989 31.1666C120.191 31.1666 120.368 31.2672 120.368 31.418Z" fill="#03A06C"/>
<path d="M129.503 31.418C129.579 31.8956 129.503 32.172 129.301 32.172C129.124 32.172 129.049 31.971 129.124 31.6693C129.225 31.2672 129.124 31.1667 128.595 31.1667C127.913 31.1667 127.888 31.3175 128.544 32.1469C128.695 32.3228 128.822 32.6747 128.822 32.9009C128.822 33.1271 129.074 33.3282 129.377 33.3785C129.781 33.4288 129.957 33.3031 130.033 32.8758C130.134 32.2977 130.134 32.2977 130.184 32.8507C130.21 33.3534 130.26 33.3785 130.84 33.1271C131.295 32.9261 131.446 32.6999 131.32 32.4485C131.244 32.2223 131.042 31.7447 130.916 31.3426C130.739 30.8399 130.487 30.664 130.033 30.664C129.478 30.664 129.402 30.7394 129.503 31.418Z" fill="#03A06C"/>
<path d="M133.591 31.971C133.666 32.1469 133.818 32.4988 133.894 32.725C133.995 32.9764 134.272 33.1774 134.524 33.1774C134.878 33.1774 135.004 33.0015 135.004 32.4234C135.004 31.7448 134.928 31.6694 134.222 31.6694C133.692 31.6694 133.49 31.7699 133.591 31.971Z" fill="#03A06C"/>
<path d="M127.181 32.2977C127.181 32.5239 126.954 32.6747 126.576 32.6747C125.768 32.6747 125.516 33.102 125.995 33.6298C126.172 33.856 126.424 34.2582 126.5 34.4844C126.601 34.7609 126.929 34.9368 127.308 34.9368C127.938 34.9368 127.938 34.9368 127.56 34.1828C127.333 33.7555 127.055 33.479 126.929 33.5544C126.778 33.6298 126.752 33.5544 126.828 33.3533C127.03 32.7752 127.938 33.1523 127.938 33.8058C127.938 34.3838 128.746 35.3138 129.023 35.0122C129.352 34.7106 129.2 34.0068 128.695 33.5544C128.418 33.3031 128.191 32.8255 128.191 32.4988C128.191 32.0966 128.039 31.9207 127.686 31.9207C127.408 31.9207 127.181 32.0966 127.181 32.2977Z" fill="#03A06C"/>
<path d="M123.194 33.8309C123.295 33.9063 123.27 34.2079 123.119 34.4844C122.791 35.1128 123.22 35.6909 124.052 35.6909C124.481 35.6909 124.607 35.5903 124.506 35.3138C124.38 35.0374 124.532 34.9368 125.036 34.9368C125.592 34.9368 125.692 34.8363 125.617 34.3587C125.541 33.8812 125.364 33.8058 124.279 33.7304C123.598 33.6801 123.119 33.7304 123.194 33.8309Z" fill="#03A06C"/>
<path d="M130.739 34.2833C130.588 34.4593 130.538 34.8363 130.638 35.0876C130.79 35.5401 130.79 35.5401 130.285 35.1128C129.781 34.6603 129.755 34.6855 129.099 35.4898C128.62 36.093 128.443 36.1935 128.443 35.8668C128.443 35.5903 128.241 35.4395 127.812 35.4395C127.459 35.4395 127.181 35.5401 127.181 35.6657C127.181 35.7914 126.828 35.8668 126.399 35.8417C125.592 35.8165 125.516 35.9171 125.364 37.0481C125.264 37.7016 126.929 38.1038 127.762 37.6513C128.418 37.2995 129.427 37.2241 129.604 37.5005C129.856 37.9027 130.689 37.7016 131.446 37.0481C132.001 36.5706 132.228 36.4952 132.228 36.7716C132.228 37.1738 132.733 37.4503 133.439 37.4503C133.667 37.4503 134.171 37.1487 134.55 36.7716C135.685 35.6909 135.383 34.2331 134.171 35.0122C133.364 35.5149 132.405 35.716 131.976 35.4395C131.724 35.2636 131.698 35.1882 131.925 35.1882C132.077 35.1882 132.228 34.9117 132.228 34.5598C132.228 34.0571 132.102 33.9314 131.623 33.9314C131.295 33.9314 130.891 34.0823 130.739 34.2833Z" fill="#03A06C"/>
<path d="M213.761 34.409C213.407 35.0625 213.786 35.7411 214.391 35.5149C214.846 35.339 214.846 34.9117 214.391 34.3084C214.063 33.856 214.038 33.856 213.761 34.409Z" fill="#03A06C"/>
<path d="M158.573 38.1289C158.497 38.4054 158.043 38.8075 157.563 39.084C156.857 39.461 156.705 39.6872 156.705 40.3658C156.705 40.8183 156.579 41.4969 156.403 41.8488C156.176 42.3515 156.201 42.6279 156.453 43.1809C156.655 43.5579 156.857 43.9601 156.933 44.0857C156.983 44.2114 156.68 44.2365 156.201 44.1611C155.444 44.0103 155.393 44.0355 155.545 44.5633C155.62 44.8649 155.696 45.3173 155.696 45.5435C155.696 46.1216 157.185 46.8505 157.614 46.4735C157.841 46.2976 157.967 46.2724 157.967 46.4484C157.967 46.574 157.791 46.8254 157.589 47.0013C157.16 47.3532 157.513 48.0067 158.119 48.0067C158.32 48.0067 158.598 48.2832 158.724 48.6351C158.85 48.9618 159.305 49.4142 159.734 49.6404C160.137 49.8415 160.491 50.1431 160.491 50.2939C160.491 50.495 160.592 50.495 160.844 50.2939C161.147 50.0426 161.349 50.0677 161.853 50.3945C162.636 50.9223 163.544 50.7464 164.276 49.9672C164.78 49.4394 164.78 49.4142 164.276 48.5848C163.998 48.1072 163.897 47.7051 164.049 47.6297C164.175 47.5291 164.251 46.8505 164.2 46.0714C164.124 44.8398 164.023 44.6387 163.443 44.3119C163.065 44.1109 162.636 44.0355 162.509 44.1109C162.358 44.1863 162.257 44.0355 162.257 43.759C162.257 43.4574 162.106 43.2312 161.904 43.2312C161.702 43.2312 161.475 43.0552 161.399 42.829C161.147 42.2006 161.222 40.9691 161.5 40.9691C161.979 40.9691 161.752 40.391 160.894 39.461C160.44 38.9583 160.011 38.4054 159.961 38.2797C159.91 38.1289 159.607 37.9278 159.279 37.8273C158.825 37.7016 158.649 37.7519 158.573 38.1289ZM158.573 45.1162C158.472 45.3173 158.371 45.4933 158.32 45.4933C158.27 45.4933 158.22 45.3173 158.22 45.1162C158.22 44.9152 158.32 44.7392 158.472 44.7392C158.598 44.7392 158.649 44.9152 158.573 45.1162Z" fill="#03A06C"/>
<path d="M127.711 38.2797C127.181 38.8076 127.383 39.4611 128.065 39.4611C128.418 39.4611 128.695 39.3605 128.695 39.2348C128.695 39.1092 128.771 38.8327 128.847 38.6316C128.998 38.1792 128.09 37.9027 127.711 38.2797Z" fill="#03A06C"/>
<path d="M154.687 38.5813C154.434 38.908 154.46 39.0588 154.813 39.461C155.242 39.9385 155.292 39.9385 155.746 39.5615C156.403 38.9332 156.327 38.2043 155.595 38.2043C155.267 38.2043 154.863 38.3802 154.687 38.5813Z" fill="#03A06C"/>
<path d="M220.22 38.9583C219.564 39.5113 219.287 39.6118 219.085 39.4107C218.858 39.1845 218.58 39.3102 217.924 39.9386C217.167 40.6675 216.99 40.7177 216.511 40.4664C216.006 40.1899 215.981 40.215 216.132 40.768C216.637 42.4017 217.974 43.3317 218.782 42.6028C219.009 42.4017 219.489 42.2258 219.842 42.2258C220.977 42.2258 222.138 41.2204 222.39 40.014C222.769 38.1289 221.734 37.6262 220.22 38.9583Z" fill="#03A06C"/>
<path d="M145.552 39.2348C144.972 39.5615 144.972 39.8883 145.577 40.215C145.956 40.391 146.208 40.3407 146.662 39.9888C146.965 39.7123 147.192 39.461 147.117 39.3856C146.789 39.084 145.931 39.0086 145.552 39.2348Z" fill="#03A06C"/>
<path d="M213.988 41.899C213.508 41.9745 212.903 42.2007 212.675 42.4017C212.322 42.7033 212.146 42.7285 211.868 42.5023C211.59 42.2761 211.313 42.2761 210.581 42.5777C209.647 42.9798 209.622 43.0552 210.127 44.3622C210.228 44.6638 208.209 44.7141 207.73 44.4125C207.528 44.2617 207.376 44.4376 207.275 44.9906C207.174 45.4179 206.998 45.82 206.897 45.8954C206.594 46.0714 206.619 47.1773 206.922 47.3783C207.073 47.4537 207.174 47.7302 207.174 47.9816C207.174 48.2329 207.401 48.5094 207.654 48.5848C207.931 48.6351 208.184 48.9618 208.234 49.2634C208.31 49.8918 208.587 50.0677 210.076 50.5201C211.641 50.9726 212.776 50.7715 212.978 50.0175C213.281 48.9115 214.467 47.2527 214.846 47.4035C215.35 47.6046 216.309 46.2473 216.183 45.5435C216.133 45.2419 216.183 44.9152 216.284 44.8398C216.637 44.6387 216.536 43.8093 216.133 43.382C215.931 43.1809 215.754 42.7285 215.754 42.3766C215.754 41.698 215.779 41.698 213.988 41.899Z" fill="#03A06C"/>
<path d="M141.943 45.3425C141.464 45.6944 141.464 45.7195 142.07 46.2222C142.423 46.4987 142.776 46.7249 142.852 46.75C143.205 46.75 143.281 45.6692 142.953 45.3425C142.524 44.9152 142.524 44.9152 141.943 45.3425Z" fill="#03A06C"/>
<path d="M165.714 46.951C165.487 47.2024 165.235 48.057 165.134 48.8361C165.033 49.6404 164.856 50.3442 164.755 50.4196C164.629 50.495 164.528 50.9725 164.528 51.4752C164.528 51.9779 164.427 52.8325 164.301 53.3352C164.124 54.1395 164.15 54.2903 164.528 54.416C164.806 54.4914 165.386 54.2903 165.941 53.9133C166.471 53.5614 167.178 53.2095 167.531 53.109C168.591 52.8828 169.802 52.0282 170.206 51.2993C170.534 50.6709 170.509 50.495 170.029 49.565C169.752 48.9869 169.424 48.5848 169.297 48.6602C169.146 48.7356 168.818 48.5094 168.515 48.1324C168.238 47.7805 167.859 47.5291 167.682 47.6045C167.48 47.6799 167.279 47.4789 167.203 47.1018C167.001 46.3729 166.294 46.2975 165.714 46.951Z" fill="#03A06C"/>
<path d="M205.787 48.7607C205.711 48.8864 205.761 49.188 205.887 49.4394C206.014 49.6907 206.19 50.0929 206.266 50.3191C206.342 50.5704 206.645 50.7715 206.922 50.7715C207.502 50.7715 207.629 49.8415 207.174 48.9869C206.897 48.4842 206.039 48.3334 205.787 48.7607Z" fill="#03A06C"/>
<path d="M217.874 50.5453C217.041 51.425 216.814 51.4501 216.713 50.7212C216.637 50.0677 215.905 49.8415 215.376 50.2688C214.846 50.6961 214.896 51.3496 215.527 52.1288C216.032 52.7571 216.082 52.7823 216.385 52.3801C216.663 51.9779 216.713 51.9779 217.041 52.556C217.218 52.8828 217.344 53.3352 217.319 53.5614C217.268 53.7876 217.42 54.0892 217.621 54.2652C217.924 54.5165 218.025 54.4663 218.151 54.0641C218.252 53.7625 218.757 53.4106 219.489 53.1593C220.145 52.9582 220.952 52.556 221.28 52.3047C221.836 51.8774 221.861 51.8271 221.457 51.0731C221.154 50.495 220.851 50.2688 220.422 50.2688C220.094 50.2688 219.539 50.1683 219.211 50.0426C218.681 49.8415 218.479 49.9169 217.874 50.5453Z" fill="#03A06C"/>
<path d="M170.685 51.6764C170.761 52.1288 171.745 52.7572 172.401 52.7823C172.982 52.7823 173.184 52.3801 172.855 51.7769C172.502 51.1234 170.584 51.0229 170.685 51.6764Z" fill="#03A06C"/>
<path d="M210.076 54.8182C209.975 54.969 209.95 55.0946 209.975 55.1449C211.212 55.9492 211.514 56.0749 211.842 55.7984C212.423 55.3208 211.868 54.5417 210.959 54.5417C210.556 54.5417 210.152 54.6674 210.076 54.8182Z" fill="#03A06C"/>
<path d="M128.191 55.9994C127.56 56.3262 126.853 56.7786 126.626 56.9797C126.071 57.4572 123.522 57.2561 122.891 56.6781C122.336 56.2005 121.781 56.2005 121.352 56.7032C121.1 57.0048 120.721 57.0802 119.939 56.9797C118.728 56.854 117.365 57.231 116.608 57.9096C116.255 58.2364 115.902 58.3118 115.447 58.2113C114.993 58.0856 114.816 58.161 114.816 58.4375C114.816 58.8899 114.514 58.915 114.135 58.538C113.706 58.1107 113.302 58.5129 113.353 59.2669C113.429 60.1969 113.151 60.5739 112.369 60.5739C111.99 60.5739 111.788 60.6493 111.864 60.7247C112.142 61.0012 110.072 62.3082 108.861 62.6349C107.549 62.9868 107.196 63.4895 107.877 63.9922C108.129 64.1932 108.205 64.3441 108.054 64.3441C107.877 64.3441 107.751 64.4949 107.751 64.6959C107.751 64.9473 107.473 64.9975 106.615 64.897C105.53 64.7965 105.48 64.8216 105.48 65.4248C105.48 65.9024 105.379 66.0532 105.126 65.9527C104.925 65.8772 104.47 66.0029 104.092 66.2543C103.486 66.6564 103.461 66.7318 103.814 66.9832C104.168 67.2596 104.168 67.335 103.739 67.7121C103.486 67.9383 102.704 68.1896 101.997 68.2902C100.635 68.441 100.181 68.8431 99.8525 70.0998C99.7263 70.5774 99.8777 70.9041 100.61 71.5576C101.72 72.6133 102.098 73.9203 101.417 74.4983C101.139 74.7246 100.938 75.1016 100.938 75.3529C100.938 75.8556 102.679 77.6653 103.158 77.6653C103.335 77.6653 103.461 77.7658 103.461 77.8915C103.461 78.0172 103.713 78.168 104.041 78.2182C104.395 78.2685 104.622 78.4947 104.672 78.8466C104.748 79.3996 104.773 79.3996 105.631 78.9974C106.565 78.545 106.666 78.1428 106.136 77.1626C105.884 76.7604 105.858 76.3583 106.01 75.9561C106.136 75.6043 106.136 75.2021 106.01 74.9508C105.707 74.3727 105.959 72.2111 106.388 71.8592C106.59 71.7084 106.741 71.432 106.741 71.2309C106.741 71.0549 106.969 70.8539 107.221 70.7533C107.524 70.6779 107.751 70.326 107.801 69.9239C107.852 69.3709 108.028 69.2201 108.634 69.1699C109.164 69.1196 109.542 68.8431 109.971 68.2399C110.274 67.7623 110.678 67.3602 110.88 67.3602C111.057 67.3602 111.359 67.1842 111.536 66.9832C111.763 66.7067 111.94 66.6564 112.142 66.8575C112.545 67.2596 112.798 67.1591 112.798 66.6061C112.798 66.3297 112.974 66.1035 113.176 66.1035C113.378 66.1035 113.555 66.0029 113.555 65.8521C113.555 65.7264 114.009 65.2992 114.564 64.9473C115.119 64.5703 115.574 64.1178 115.574 63.9168C115.574 63.6906 115.725 63.59 115.952 63.6906C116.154 63.766 116.331 63.7157 116.331 63.59C116.331 63.4392 116.734 63.3387 117.239 63.3387C118.4 63.3387 119.132 62.9365 118.93 62.4338C118.728 61.9311 119.258 61.5793 120.267 61.5793C120.696 61.5793 121.201 61.4033 121.377 61.2022C121.605 60.9258 122.21 60.8252 123.548 60.8252C124.557 60.8252 125.44 60.7247 125.541 60.5739C125.642 60.4231 125.894 60.4482 126.273 60.599C126.727 60.8001 127.03 60.775 127.636 60.4734C128.065 60.2471 128.695 60.0712 128.998 60.0712C129.351 60.0712 129.982 59.6942 130.538 59.1161C131.244 58.3872 131.471 57.9599 131.471 57.3064C131.446 55.5219 130.109 54.9941 128.191 55.9994Z" fill="#03A06C"/>
<path d="M173.259 55.723C173.057 56.2508 173.461 56.6781 173.966 56.477C174.521 56.276 174.47 55.8738 173.89 55.5722C173.511 55.3711 173.385 55.3963 173.259 55.723Z" fill="#03A06C"/>
<path d="M153.576 58.4627C153.476 58.6889 153.551 59.0408 153.728 59.2418C154.005 59.5686 154.106 59.5434 154.485 59.0659C154.737 58.7643 154.939 58.4124 154.939 58.2867C154.939 57.8846 153.728 58.0605 153.576 58.4627Z" fill="#03A06C"/>
<path d="M161.374 58.5631C161.122 58.8396 160.743 59.0658 160.516 59.0658C160.213 59.0658 160.238 59.1915 160.667 59.6188C161.223 60.1466 161.248 60.1466 161.752 59.6942C162.257 59.2417 162.459 58.0604 162.055 58.0604C161.929 58.0604 161.626 58.2866 161.374 58.5631Z" fill="#03A06C"/>
<path d="M295.924 59.6189C295.368 59.9205 295.343 61.881 295.873 62.3334C296.075 62.5093 296.252 62.8612 296.252 63.1126C296.252 63.389 296.58 63.7409 297.034 63.9923L297.841 64.3944L297.665 63.4393C297.564 62.8863 297.463 61.8558 297.438 61.1018C297.387 59.9959 297.286 59.7194 296.857 59.5686C296.58 59.4429 296.151 59.4681 295.924 59.6189Z" fill="#03A06C"/>
<path d="M317.045 62.1071C316.288 62.3836 316.061 62.8109 316.49 63.2382C316.792 63.5398 316.944 63.4895 317.55 62.8612C318.281 62.082 318.054 61.7301 317.045 62.1071Z" fill="#03A06C"/>
<path d="M145.628 64.1933C145.199 64.696 145.93 65.1987 146.788 64.9724L147.495 64.7965L146.864 64.319C146.107 63.766 146.006 63.7409 145.628 64.1933Z" fill="#03A06C"/>
<path d="M312.654 64.5955C312.477 64.696 312.427 64.9976 312.528 65.3244C312.654 65.7768 312.881 65.8522 314.017 65.8522C315.026 65.8522 315.455 65.7265 315.808 65.3495C316.061 65.073 316.187 64.7714 316.111 64.6709C315.859 64.4447 313.032 64.3693 312.654 64.5955Z" fill="#03A06C"/>
<path d="M144.744 66.9329C144.214 67.3351 144.391 68.3656 144.997 68.3656C145.501 68.3656 145.728 67.7121 145.451 67.0837C145.249 66.6564 145.173 66.6313 144.744 66.9329Z" fill="#03A06C"/>
<path d="M182.748 67.687C182.142 68.3153 182.016 69.1196 182.495 69.1196C182.647 69.1196 182.975 69.2956 183.202 69.4966C183.606 69.8485 183.706 69.8234 184.438 69.2453C184.993 68.7677 185.221 68.3405 185.221 67.8378C185.221 67.1592 185.145 67.1089 184.262 67.1089C183.58 67.1089 183.126 67.2848 182.748 67.687Z" fill="#03A06C"/>
<path d="M148.58 71.1053C148.201 71.4823 148.277 71.985 148.782 72.6134C148.959 72.8144 149.64 72.0604 149.64 71.6331C149.64 70.9042 149.085 70.6277 148.58 71.1053Z" fill="#03A06C"/>
<path d="M128.443 72.5882C128.443 72.7139 128.14 72.9401 127.787 73.116C127.408 73.292 127.181 73.5433 127.257 73.7444C127.333 73.9203 127.282 74.1968 127.156 74.3225C126.702 74.7749 127.661 75.4787 128.519 75.3027C128.923 75.2273 129.427 75.1519 129.604 75.1519C130.134 75.1519 130.033 74.4984 129.326 73.3925C128.695 72.4123 128.443 72.1861 128.443 72.5882Z" fill="#03A06C"/>
<path d="M144.77 73.0657C144.442 73.3673 144.593 73.8952 145.022 73.8952C145.249 73.8952 145.653 74.0711 145.905 74.3224C146.334 74.6995 146.359 74.6995 146.359 73.9706C146.359 73.493 146.208 73.1411 145.956 73.0406C145.451 72.8395 144.972 72.8395 144.77 73.0657Z" fill="#03A06C"/>
<path d="M134.752 74.5235C134.348 75.001 134.903 75.8053 135.357 75.4283C135.534 75.2775 135.913 75.2272 136.215 75.3278C136.846 75.4786 136.897 75.3529 136.518 74.624C136.19 74.0459 135.206 73.9957 134.752 74.5235Z" fill="#03A06C"/>
<path d="M89.2288 77.2883C87.9923 78.8718 89.1026 80.1285 91.399 79.7766C92.7364 79.5504 93.014 78.8466 92.3074 77.4391C91.8532 76.5091 91.7018 76.4086 90.8438 76.4086C90.0615 76.4086 89.7839 76.5594 89.2288 77.2883Z" fill="#03A06C"/>
<path d="M60.159 77.2883C60.058 77.4894 60.1337 77.8413 60.3104 78.0423C60.588 78.3942 60.6889 78.3942 61.1179 77.9921C61.5721 77.5899 61.5721 77.5397 61.1684 77.238C60.588 76.8108 60.3356 76.8359 60.159 77.2883Z" fill="#03A06C"/>
<path d="M138.89 78.2937C138.739 78.8969 139.117 79.6761 139.571 79.6761C139.698 79.6761 139.975 79.3996 140.202 79.0477C140.53 78.545 140.556 78.3439 140.303 78.0423C139.799 77.4391 139.067 77.5899 138.89 78.2937Z" fill="#03A06C"/>
<path d="M2.11962 79.0226C1.84204 79.2488 1.36259 79.3242 0.933605 79.2488C0.277511 79.1231 0.252277 79.1483 0.479386 79.7012C1.38782 82.0387 2.24579 83.5217 3.45704 84.9041L4.84493 86.4624L5.87954 85.9094C7.29267 85.1303 7.62071 84.2254 6.86368 83.1949C6.5104 82.7425 6.30853 82.089 6.30853 81.4858C6.30853 80.7066 6.18236 80.405 5.7029 80.1034C5.17298 79.7515 5.07204 79.7515 4.71876 80.1034C4.34025 80.4804 4.28978 80.4804 4.13837 80.028C3.88603 79.3745 3.25517 78.6707 2.90189 78.6707C2.75048 78.6707 2.3972 78.8215 2.11962 79.0226Z" fill="#03A06C"/>
<path d="M315.833 98.1499C315.455 98.728 315.455 98.8285 315.833 99.4066C316.111 99.8339 316.212 100.337 316.111 100.89C315.934 101.97 316.666 102.825 317.322 102.297C317.524 102.121 317.701 101.744 317.701 101.442C317.701 101.141 317.827 100.764 317.978 100.613C318.18 100.412 318.105 100.06 317.726 99.3815C317.449 98.8285 317.171 98.2002 317.095 97.9488C316.893 97.3205 316.313 97.421 315.833 98.1499Z" fill="#03A06C"/>
<path d="M317.953 104.66C317.953 104.987 318.13 105.389 318.357 105.565C318.66 105.841 318.811 105.816 319.164 105.464C319.568 105.062 319.568 105.012 318.963 104.559C318.13 103.906 317.953 103.931 317.953 104.66Z" fill="#03A06C"/>
<path d="M321.738 118.509C321.738 119.564 321.789 119.64 322.394 119.64C322.899 119.64 323.025 119.539 322.899 119.238C322.823 119.011 322.748 118.509 322.748 118.107C322.748 117.554 322.621 117.378 322.243 117.378C321.814 117.378 321.738 117.554 321.738 118.509Z" fill="#03A06C"/>
<path d="M268.494 119.866C268.494 120.017 268.342 120.142 268.14 120.142C267.611 120.142 267.283 120.67 267.182 121.651C267.106 122.405 267.182 122.53 267.661 122.53C267.964 122.53 268.292 122.631 268.393 122.731C268.696 123.033 269.503 122.103 269.503 121.475C269.503 121.123 269.276 120.57 268.998 120.218C268.721 119.866 268.494 119.69 268.494 119.866Z" fill="#03A06C"/>
<path d="M321.436 124.591C321.183 125.044 321.057 125.773 321.082 126.552C321.133 127.708 321.208 127.808 321.764 127.808C322.344 127.808 322.369 127.708 322.495 125.848C322.596 124.214 322.571 123.913 322.243 123.913C322.016 123.913 321.663 124.214 321.436 124.591Z" fill="#03A06C"/>
<path d="M320.376 130.422C320.149 130.774 320.477 131.453 320.855 131.453C321.234 131.453 321.562 130.774 321.335 130.422C321.259 130.297 321.057 130.196 320.855 130.196C320.653 130.196 320.451 130.297 320.376 130.422Z" fill="#03A06C"/>
<path d="M319.316 132.483C319.013 132.961 319.19 136.304 319.543 136.53C320.098 136.882 320.351 136.58 320.401 135.449C320.451 134.846 320.552 134.017 320.628 133.614C320.754 133.062 320.679 132.81 320.351 132.534C319.77 132.132 319.543 132.132 319.316 132.483Z" fill="#03A06C"/>
<path d="M318.382 138.918C317.978 139.018 317.953 139.194 318.079 140.074C318.407 142.009 319.19 141.959 319.291 139.999C319.341 138.893 319.19 138.717 318.382 138.918Z" fill="#03A06C"/>
<path d="M321.082 139.773C320.83 140.2 321.663 140.929 322.016 140.577C322.193 140.401 322.243 140.099 322.167 139.898C321.991 139.446 321.335 139.37 321.082 139.773Z" fill="#03A06C"/>
</svg>
