<svg xmlns="http://www.w3.org/2000/svg" viewBox="0 0 12 13"><defs><style>.cls-1{fill:#03a06c;}</style></defs><title>caalendar</title><g id="Слой_2" data-name="Слой 2"><g id="Слой_1-2" data-name="Слой 1"><path class="cls-1" d="M10.28,13H1.72A1.71,1.71,0,0,1,0,11.3V2.9A1.71,1.71,0,0,1,1.72,1.2H3.06V.5a.5.5,0,0,1,.5-.5.5.5,0,0,1,.5.5v.7H7.94V.5a.5.5,0,0,1,.5-.5.5.5,0,0,1,.5.5v.7h1.34A1.71,1.71,0,0,1,12,2.9v8.4A1.71,1.71,0,0,1,10.28,13ZM1,5.8v5.5a.71.71,0,0,0,.72.7h8.56a.71.71,0,0,0,.72-.7V5.8Zm0-1H11V2.9a.71.71,0,0,0-.72-.7H8.94v.7a.5.5,0,0,1-.5.5.5.5,0,0,1-.5-.5V2.2H4.06v.7a.5.5,0,0,1-.5.5.5.5,0,0,1-.5-.5V2.2H1.72A.71.71,0,0,0,1,2.9Z"/></g></g></svg>