<svg xmlns="http://www.w3.org/2000/svg" viewBox="0 0 21 18.46"><defs><style>.cls-1{fill:#e8e8e8;}</style></defs><title>paper</title><g id="Слой_2" data-name="Слой 2"><g id="Слой_1-2" data-name="Слой 1"><path class="cls-1" d="M.61,14.77H16.69a.59.59,0,0,0,.4-.15c.15-.13,3.67-3.16,3.89-9.7H3.71C3.5,10.86.25,13.65.22,13.68a.61.61,0,0,0-.18.68A.62.62,0,0,0,.61,14.77Z"/><path class="cls-1" d="M20.38,1.23H17.31V.62a.62.62,0,1,0-1.23,0v.61H13V.62a.62.62,0,1,0-1.23,0v.61H8.65V.62a.62.62,0,1,0-1.23,0v.61H4.35a.61.61,0,0,0-.62.62V3.69H21V1.85A.61.61,0,0,0,20.38,1.23Z"/><path class="cls-1" d="M17.88,15.57a1.87,1.87,0,0,1-1.19.43h-13v1.84a.62.62,0,0,0,.62.62h16a.62.62,0,0,0,.62-.62V11A12.3,12.3,0,0,1,17.88,15.57Z"/></g></g></svg>