<svg xmlns="http://www.w3.org/2000/svg" viewBox="0 0 20 20"><defs><style>.cls-1{fill:#03a06c;}</style></defs><title>phone</title><g id="Слой_2" data-name="Слой 2"><g id="Слой_1-2" data-name="Слой 1"><path class="cls-1" d="M16.42,20h-.25a18.21,18.21,0,0,1-7.89-2.8,17.81,17.81,0,0,1-5.47-5.46A18.13,18.13,0,0,1,0,3.84,2.84,2.84,0,0,1,.14,2.71a2.79,2.79,0,0,1,.57-1,2.73,2.73,0,0,1,2-.88H5.31A2.73,2.73,0,0,1,8,3.2a10.13,10.13,0,0,0,.55,2.2A2.74,2.74,0,0,1,8,8.27l-.55.54a12.8,12.8,0,0,0,3.76,3.75l.54-.54a2.71,2.71,0,0,1,1.35-.73,2.67,2.67,0,0,1,1.53.12,9.7,9.7,0,0,0,2.2.54,2.74,2.74,0,0,1,2.35,2.75v2.57a2.78,2.78,0,0,1-.23,1.1,2.57,2.57,0,0,1-.66.91,2.72,2.72,0,0,1-1,.58A2.93,2.93,0,0,1,16.42,20ZM5.32,2.86H2.72a.72.72,0,0,0-.29.06.81.81,0,0,0-.24.17A.68.68,0,0,0,2,3.35a.59.59,0,0,0,0,.29,16.2,16.2,0,0,0,2.49,7,15.9,15.9,0,0,0,4.87,4.86,16.15,16.15,0,0,0,7,2.49,1,1,0,0,0,.28,0,.76.76,0,0,0,.26-.15.81.81,0,0,0,.17-.24.75.75,0,0,0,.06-.29V14.67a.74.74,0,0,0-.17-.48.71.71,0,0,0-.46-.25,12.13,12.13,0,0,1-2.62-.66.73.73,0,0,0-.41,0,.7.7,0,0,0-.36.19L12,14.53a1,1,0,0,1-1.2.16A14.8,14.8,0,0,1,5.28,9.16,1,1,0,0,1,5.44,8l1.1-1.09a.7.7,0,0,0,.19-.35.69.69,0,0,0,0-.4A12,12,0,0,1,6,3.47.74.74,0,0,0,5.8,3,.76.76,0,0,0,5.32,2.86Zm10.23,6a1,1,0,0,1-1-.81,3.19,3.19,0,0,0-.91-1.7A3.26,3.26,0,0,0,12,5.42a1,1,0,1,1,.38-2,5.27,5.27,0,0,1,4.19,4.19,1,1,0,0,1-.79,1.17Zm3.45,0a1,1,0,0,1-1-.89A6.73,6.73,0,0,0,12,2a1,1,0,1,1,.22-2A8.76,8.76,0,0,1,20,7.72a1,1,0,0,1-.88,1.1Z"/></g></g></svg>