<svg xmlns="http://www.w3.org/2000/svg" viewBox="0 0 26 24"><defs><style>.cls-1{fill:#03a06c;}</style></defs><title>wallet</title><g id="Слой_2" data-name="Слой 2"><g id="Слой_1-2" data-name="Слой 1"><path class="cls-1" d="M23.35,5.28V2.93a3,3,0,0,0-1-2.3A3.15,3.15,0,0,0,19.66.08L3.25,2C.54,2.33,0,3.59,0,4.63V21.1A2.9,2.9,0,0,0,2.87,24H23.13A2.9,2.9,0,0,0,26,21.1V8.18A3,3,0,0,0,23.35,5.28Zm.43,11.33H18.47a2.19,2.19,0,0,1,0-4.38h5.31ZM3.47,4.24,20,2.33h.11a.86.86,0,0,1,.86.11.67.67,0,0,1,.22.6v2.3H2.71c-.33,0-.43-.11-.6-.39V4.79C2.11,4.57,2.38,4.35,3.47,4.24ZM23.08,21.92H2.82a.73.73,0,0,1-.71-.71V7.42a3.89,3.89,0,0,0,.76,0H23.08a.72.72,0,0,1,.7.71V10.1H18.47a4.38,4.38,0,0,0,0,8.76h5.31v2.4A.72.72,0,0,1,23.08,21.92Z"/></g></g></svg>