<svg xmlns="http://www.w3.org/2000/svg" viewBox="0 0 13 10"><defs><style>.cls-1{fill:#03a06c;}</style></defs><title>watched</title><g id="Слой_2" data-name="Слой 2"><g id="Слой_1-2" data-name="Слой 1"><path class="cls-1" d="M6.5,10C2.42,10,.14,5.41.05,5.22a.49.49,0,0,1,0-.44C.14,4.59,2.42,0,6.5,0S12.86,4.59,13,4.78a.49.49,0,0,1,0,.44C12.86,5.41,10.58,10,6.5,10ZM1.07,5c.48.86,2.44,4,5.43,4s4.95-3.13,5.43-4c-.48-.86-2.44-4-5.43-4S1.55,4.13,1.07,5Z"/><path class="cls-1" d="M6.5,7.19A2.19,2.19,0,1,1,8.64,5,2.17,2.17,0,0,1,6.5,7.19Zm0-3.38A1.19,1.19,0,1,0,7.64,5,1.17,1.17,0,0,0,6.5,3.81Z"/></g></g></svg>