<svg xmlns="http://www.w3.org/2000/svg" viewBox="0 0 47 47"><defs><style>.cls-1{fill:#03a06c;}.cls-2{fill:#ffd782;}.cls-3{fill:#ffc36e;}.cls-4{fill:#f5b464;}</style></defs><title>logo</title><g id="Слой_2" data-name="Слой 2"><g id="Слой_1-2" data-name="Слой 1"><rect class="cls-1" width="47" height="47" rx="10" ry="10"/><path class="cls-2" d="M25.13,15.17h-2V27.89h2Z"/><path class="cls-3" d="M25.24,27.56H23a.54.54,0,0,0-.56.51v7.18H25.8V28.07A.54.54,0,0,0,25.24,27.56Z"/><path class="cls-2" d="M29,35.64l-3.35-1h-3l-3.35,1a1,1,0,0,0-.71,1H29.71A1,1,0,0,0,29,35.64Z"/><path class="cls-2" d="M24.13,12.76a1.53,1.53,0,0,0,0-3,1.53,1.53,0,1,0,0,3Z"/><path class="cls-4" d="M20.53,27.78l-5-11.07V14.79a.5.5,0,0,0-.5-.51.51.51,0,0,0-.51.51v1.92l-5,11.07a.51.51,0,1,0,.92.42L15,18.05,19.6,28.2a.51.51,0,0,0,.46.3.49.49,0,0,0,.21,0A.52.52,0,0,0,20.53,27.78Z"/><path class="cls-4" d="M38.81,27.78l-5-11.07V14.79a.5.5,0,0,0-.5-.51.51.51,0,0,0-.51.51v1.92l-5,11.07a.51.51,0,1,0,.92.42l4.62-10.15L37.88,28.2a.51.51,0,0,0,.47.3.5.5,0,0,0,.46-.72Z"/><path class="cls-4" d="M30.22,37.13H18a.5.5,0,0,1-.51-.5.51.51,0,0,1,.51-.51H30.22a.51.51,0,0,1,.51.51A.5.5,0,0,1,30.22,37.13Z"/><path class="cls-4" d="M25.14,15.81h-2a.51.51,0,1,1,0-1h2a.51.51,0,0,1,0,1Z"/><path class="cls-2" d="M15,17.84a1,1,0,1,0-1-1A1,1,0,0,0,15,17.84Z"/><path class="cls-2" d="M33.27,17.84a1,1,0,1,0-1-1A1,1,0,0,0,33.27,17.84Z"/><path class="cls-2" d="M20.06,27.49H9.91a.5.5,0,0,0-.51.5c0,2,2.45,3.56,5.59,3.56S20.57,30,20.57,28A.5.5,0,0,0,20.06,27.49Z"/><path class="cls-2" d="M38.35,27.49H28.19a.5.5,0,0,0-.51.5c0,2,2.45,3.56,5.59,3.56S38.85,30,38.85,28A.5.5,0,0,0,38.35,27.49Z"/><path class="cls-3" d="M33.75,13.69l-8.62-1.53h-2l-8.61,1.53a.52.52,0,0,0-.42.53v.08a.52.52,0,0,0,.5.54H33.67a.52.52,0,0,0,.5-.54v-.08A.53.53,0,0,0,33.75,13.69Z"/></g></g></svg>