<?xml version="1.0" encoding="UTF-8"?><!DOCTYPE svg PUBLIC "-//W3C//DTD SVG 1.1//EN" "http://www.w3.org/Graphics/SVG/1.1/DTD/svg11.dtd"><svg xmlns="http://www.w3.org/2000/svg" xmlns:xlink="http://www.w3.org/1999/xlink"><defs><style>.cls-1{fill:#03a06c}</style><style>.cls-1{fill:#e8e8e8}</style><style>.cls-1{fill:#03a06c}</style></defs><symbol id="arrow-left" viewBox="0 0 512 248"><g><path d="M492 104H68.44l70.17-69.82a20 20 0 00-28.22-28.36l-104.51 104a20 20 0 000 28.32l104.51 104a20 20 0 0028.21-28.36L68.44 144H492a20 20 0 000-40z"/></g></symbol><symbol id="arrow" viewBox="0 0 15.53 9.06"><g><path d="M4 9.06l-4-4 .53-.53L0 4l4-4 1.06 1.06-2.72 2.72h13.19v1.5H2.34L5.06 8 4 9.06z"/></g></symbol><symbol id="calendar" viewBox="0 0 12 13"><g><path d="M10.28 13H1.72A1.71 1.71 0 010 11.3V2.9a1.71 1.71 0 011.72-1.7h1.34V.5a.5.5 0 01.5-.5.5.5 0 01.5.5v.7h3.88V.5a.5.5 0 01.5-.5.5.5 0 01.5.5v.7h1.34A1.71 1.71 0 0112 2.9v8.4a1.71 1.71 0 01-1.72 1.7zM1 5.8v5.5a.71.71 0 00.72.7h8.56a.71.71 0 00.72-.7V5.8zm0-1h10V2.9a.71.71 0 00-.72-.7H8.94v.7a.5.5 0 01-.5.5.5.5 0 01-.5-.5v-.7H4.06v.7a.5.5 0 01-.5.5.5.5 0 01-.5-.5v-.7H1.72a.71.71 0 00-.72.7z"/></g></symbol><symbol id="check" viewBox="0 0 10 7"><g><path d="M3.5 7a1 1 0 01-.67-.26L.33 4.47a1 1 0 01-.07-1.42A1 1 0 011.67 3L3.5 4.65 8.33.26a1 1 0 111.34 1.48l-5.5 5A1 1 0 013.5 7z"/></g></symbol><symbol id="email" viewBox="0 0 22 18"><g><path d="M19 18H3a3 3 0 01-3-3V3a3 3 0 013-3h16a3 3 0 013 3v12a3 3 0 01-3 3zM2 4.92V15a1 1 0 001 1h16a1 1 0 001-1V4.92l-8.43 5.9a1 1 0 01-1.14 0zm.11-2.37L11 8.78l8.89-6.23A1 1 0 0019 2H3a1 1 0 00-.89.55z"/></g></symbol><symbol id="list-check" viewBox="0 0 13.25 12.5"><g id="&#x421;&#x43B;&#x43E;&#x439;_2"><g id="&#x421;&#x43B;&#x43E;&#x439;_1-2"><path class="cls-1" d="M1.13 7.53l3.59 3.06a1.12 1.12 0 01-1.58 1.58L.08 8.06c-.44-.44 1.05-.53 1.05-.53z"/><path class="cls-1" d="M11.81 0s1.75-.09 1.4.43L4.89 11.91a1 1 0 01-1.4.35 1 1 0 01-.35-1.49z"/></g></g></symbol><symbol id="location" viewBox="0 0 20 20"><g><path d="M10.47 20h-.1a1 1 0 01-.87-.76l-1.75-7-7-1.75A1 1 0 010 9.63a1 1 0 01.57-1l18-8.53a1 1 0 011.14.19 1 1 0 01.19 1.14l-8.52 18a1 1 0 01-.91.57zM4 9.23l4.87 1.22a1 1 0 01.73.73l1.22 4.87L16.9 3.1z"/></g></symbol><symbol id="paper" viewBox="0 0 21 18.46"><g id="&#x421;&#x43B;&#x43E;&#x439;_2"><g id="&#x421;&#x43B;&#x43E;&#x439;_1-2"><path class="cls-1" d="M.61 14.77h16.08a.59.59 0 00.4-.15c.15-.13 3.67-3.16 3.89-9.7H3.71C3.5 10.86.25 13.65.22 13.68a.61.61 0 00-.18.68.62.62 0 00.57.41zM20.38 1.23h-3.07V.62a.62.62 0 10-1.23 0v.61H13V.62a.62.62 0 10-1.23 0v.61H8.65V.62a.62.62 0 10-1.23 0v.61H4.35a.61.61 0 00-.62.62v1.84H21V1.85a.61.61 0 00-.62-.62z"/><path class="cls-1" d="M17.88 15.57a1.87 1.87 0 01-1.19.43h-13v1.84a.62.62 0 00.62.62h16a.62.62 0 00.62-.62V11a12.3 12.3 0 01-3.05 4.57z"/></g></g></symbol><symbol id="phone" viewBox="0 0 20 20"><g><path d="M16.42 20h-.25a18.21 18.21 0 01-7.89-2.8 17.81 17.81 0 01-5.47-5.46A18.13 18.13 0 010 3.84a2.84 2.84 0 01.14-1.13 2.79 2.79 0 01.57-1 2.73 2.73 0 012-.88h2.6A2.73 2.73 0 018 3.2a10.13 10.13 0 00.55 2.2A2.74 2.74 0 018 8.27l-.55.54a12.8 12.8 0 003.76 3.75l.54-.54a2.71 2.71 0 011.35-.73 2.67 2.67 0 011.53.12 9.7 9.7 0 002.2.54 2.74 2.74 0 012.35 2.75v2.57a2.78 2.78 0 01-.23 1.1 2.57 2.57 0 01-.66.91 2.72 2.72 0 01-1 .58 2.93 2.93 0 01-.87.14zM5.32 2.86h-2.6a.72.72 0 00-.29.06.81.81 0 00-.24.17.68.68 0 00-.19.26.59.59 0 000 .29 16.2 16.2 0 002.49 7 15.9 15.9 0 004.87 4.86 16.15 16.15 0 007 2.49 1 1 0 00.28 0 .76.76 0 00.26-.15.81.81 0 00.17-.24.75.75 0 00.06-.29v-2.64a.74.74 0 00-.17-.48.71.71 0 00-.46-.25 12.13 12.13 0 01-2.62-.66.73.73 0 00-.41 0 .7.7 0 00-.36.19L12 14.53a1 1 0 01-1.2.16 14.8 14.8 0 01-5.52-5.53A1 1 0 015.44 8l1.1-1.09a.7.7 0 00.19-.35.69.69 0 000-.4A12 12 0 016 3.47.74.74 0 005.8 3a.76.76 0 00-.48-.14zm10.23 6a1 1 0 01-1-.81 3.19 3.19 0 00-.91-1.7A3.26 3.26 0 0012 5.42a1 1 0 11.38-2 5.27 5.27 0 014.19 4.19 1 1 0 01-.79 1.17zm3.45 0a1 1 0 01-1-.89A6.73 6.73 0 0012 2a1 1 0 11.22-2A8.76 8.76 0 0120 7.72a1 1 0 01-.88 1.1z"/></g></symbol><symbol id="search" viewBox="0 0 16 16"><g><path d="M15 16a1 1 0 01-.71-.29L11.57 13A7.21 7.21 0 1113 11.57l2.72 2.72a1 1 0 010 1.42A1 1 0 0115 16zM7.22 2a5.22 5.22 0 103.63 9l.06-.06.06-.06A5.22 5.22 0 007.22 2z"/></g></symbol><symbol id="time" viewBox="0 0 20 20"><g><path d="M10 20a10 10 0 1110-10 10 10 0 01-10 10zm0-18a8 8 0 108 8 8 8 0 00-8-8zm3.6 10.8a.93.93 0 01-.45-.11l-3.6-1.8A1 1 0 019 10V4.6a1 1 0 012 0v4.78l3.05 1.53a1 1 0 01.44 1.34 1 1 0 01-.89.55z"/></g></symbol><symbol id="triangle-down" viewBox="0 0 9 5"><path class="cls-1" d="M4.5 5a.47.47 0 01-.35-.15l-4-4a.48.48 0 010-.7.48.48 0 01.7 0L4.5 3.79 8.15.15a.48.48 0 01.7 0 .48.48 0 010 .7l-4 4A.47.47 0 014.5 5z"/></symbol><symbol id="warning" viewBox="0 0 16 16"><g><path d="M8 16a8 8 0 118-8 8 8 0 01-8 8zM8 1a7 7 0 107 7 7 7 0 00-7-7zm0 10.5a.5.5 0 01-.5-.5.5.5 0 01.5-.5.5.5 0 010 1zm0-3a.5.5 0 01-.5-.5V5a.5.5 0 011 0v3a.5.5 0 01-.5.5z"/></g></symbol><symbol id="watched" viewBox="0 0 13 10"><g id="&#x421;&#x43B;&#x43E;&#x439;_2"><g id="&#x421;&#x43B;&#x43E;&#x439;_1-2"><path class="cls-1" d="M6.5 10C2.42 10 .14 5.41.05 5.22a.49.49 0 010-.44C.14 4.59 2.42 0 6.5 0s6.36 4.59 6.5 4.78a.49.49 0 010 .44c-.14.19-2.42 4.78-6.5 4.78zM1.07 5c.48.86 2.44 4 5.43 4s4.95-3.13 5.43-4c-.48-.86-2.44-4-5.43-4S1.55 4.13 1.07 5z"/><path class="cls-1" d="M6.5 7.19A2.19 2.19 0 118.64 5 2.17 2.17 0 016.5 7.19zm0-3.38A1.19 1.19 0 107.64 5 1.17 1.17 0 006.5 3.81z"/></g></g></symbol></svg>