<svg width="153" height="16" viewBox="0 0 153 16" fill="none" xmlns="http://www.w3.org/2000/svg">
<g clip-path="url(#clip0)">
<path fill-rule="evenodd" clip-rule="evenodd" d="M50.6006 0H39.5183C40.0721 3.04629 42.3356 5.4917 45.2637 6.28821C45.9282 6.46987 46.6273 6.56769 47.3472 6.56769H55.8891C55.9653 6.20437 55.9999 5.83406 55.9999 5.44978C55.9999 2.43843 53.5841 0 50.6006 0Z" fill="url(#paint0_linear)"/>
<path fill-rule="evenodd" clip-rule="evenodd" d="M40.2175 7.2666V16.0002H45.2015V10.8998H50.6007C52.9542 10.8998 54.9478 9.38363 55.6885 7.2666H40.2175Z" fill="#4DB45E"/>
<path fill-rule="evenodd" clip-rule="evenodd" d="M33.2956 0C33.2956 0 31.835 0.132751 31.1497 1.67686L27.6194 9.50218H27.2041V0H22.2202V16H26.9272C26.9272 16 28.457 15.8603 29.1423 14.3231L32.6034 6.49782H33.0187V16H38.0026V0H33.2956Z" fill="#4DB45E"/>
<path fill-rule="evenodd" clip-rule="evenodd" d="M15.0902 3.04413e-07V0.0069872C15.0833 0.0069872 12.9028 2.38419e-07 12.3214 2.10306C11.7884 4.03144 10.2863 9.35546 10.2447 9.50218H9.82941C9.82941 9.50218 8.2927 4.05939 7.75277 2.09607C7.17132 -0.00698662 4.98393 3.04413e-07 4.98393 3.04413e-07H0V16H4.98393V6.49782H5.19159H5.39925L8.30654 16H11.7676L14.6749 6.5048H15.0902V16H20.0741V3.04413e-07H15.0902Z" fill="#4DB45E"/>
</g>
<path d="M84.5148 1.71118H77.4849V14.289H84.5148V1.71118Z" fill="#FF5F00"/>
<path d="M77.9313 8C77.9313 5.44444 79.1364 3.17778 80.9887 1.71111C79.6274 0.644447 77.9089 0 76.0343 0C71.5931 0 68 3.57778 68 8C68 12.4222 71.5931 16 76.0343 16C77.9089 16 79.6274 15.3556 80.9887 14.2889C79.1364 12.8444 77.9313 10.5556 77.9313 8Z" fill="#EB001B"/>
<path d="M93.9999 8C93.9999 12.4222 90.4068 16 85.9657 16C84.091 16 82.3726 15.3556 81.0112 14.2889C82.8859 12.8222 84.0687 10.5556 84.0687 8C84.0687 5.44444 82.8636 3.17778 81.0112 1.71111C82.3726 0.644447 84.091 0 85.9657 0C90.4068 0 93.9999 3.6 93.9999 8Z" fill="#F79E1B"/>
<path d="M124.666 15.7691H120.616L123.149 0.28064H127.199L124.666 15.7691Z" fill="#00579F"/>
<path d="M139.349 0.659404C138.55 0.346017 137.283 0 135.717 0C131.717 0 128.9 2.10895 128.883 5.12412C128.85 7.3487 130.899 8.58429 132.433 9.32603C134 10.084 134.532 10.5787 134.532 11.2543C134.516 12.2919 133.266 12.7702 132.1 12.7702C130.483 12.7702 129.616 12.5236 128.3 11.9463L127.766 11.6989L127.199 15.1757C128.149 15.6036 129.9 15.9834 131.717 16C135.967 16 138.733 13.9237 138.766 10.7105C138.782 8.94739 137.7 7.59639 135.366 6.49242C133.95 5.78374 133.082 5.30589 133.082 4.58078C133.099 3.9216 133.816 3.24643 135.415 3.24643C136.732 3.21336 137.699 3.52631 138.432 3.83947L138.799 4.00394L139.349 0.659404Z" fill="#00579F"/>
<path d="M144.733 10.2821C145.066 9.39227 146.35 5.94853 146.35 5.94853C146.333 5.9816 146.683 5.04232 146.883 4.46569L147.166 5.80027C147.166 5.80027 147.933 9.50769 148.099 10.2821C147.466 10.2821 145.533 10.2821 144.733 10.2821ZM149.732 0.28064H146.599C145.633 0.28064 144.899 0.560519 144.483 1.56572L138.466 15.7688H142.716C142.716 15.7688 143.416 13.8572 143.566 13.4455C144.032 13.4455 148.167 13.4455 148.766 13.4455C148.883 13.9893 149.25 15.7688 149.25 15.7688H153L149.732 0.28064Z" fill="#00579F"/>
<path d="M117.233 0.28064L113.267 10.8423L112.833 8.70024C112.1 6.22863 109.8 3.54327 107.234 2.20804L110.867 15.7526H115.15L121.516 0.28064H117.233Z" fill="#00579F"/>
<path d="M109.583 0.28064H103.067L103 0.593588C108.083 1.87889 111.45 4.97705 112.833 8.7009L111.416 1.58258C111.183 0.593369 110.466 0.31327 109.583 0.28064Z" fill="#FAA61A"/>
<defs>
<linearGradient id="paint0_linear" x1="39.5197" y1="3.28384" x2="55.9999" y2="3.28384" gradientUnits="userSpaceOnUse">
<stop offset="0.3" stop-color="#00B4E6"/>
<stop offset="1" stop-color="#088CCB"/>
</linearGradient>
<clipPath id="clip0">
<rect width="56" height="16" fill="white"/>
</clipPath>
</defs>
</svg>
