<svg width="64" height="64" viewBox="0 0 64 64" fill="none" xmlns="http://www.w3.org/2000/svg">
<path d="M54.758 61.7228C39.586 64.7591 24.414 64.7591 9.24202 61.7228C6.13609 61.0715 2.92851 57.8639 2.27721 54.758C-0.75907 39.586 -0.75907 24.414 2.27721 9.24202C2.92851 6.13609 6.13609 2.92851 9.24202 2.27721C24.414 -0.75907 39.586 -0.75907 54.758 2.27721C57.8639 2.92851 61.0715 6.13609 61.7228 9.24202C64.7591 24.414 64.7591 39.586 61.7228 54.758C61.0715 57.8639 57.8639 61.0715 54.758 61.7228Z" fill="#F1F5F4"/>
<path d="M37.837 17.7089C37.3923 17.2578 36.7569 17 36.058 17H23.5414C22.1436 17 21 18.16 21 19.5778V43.4222C21 44.84 22.1436 46 23.5414 46H41.4586C42.8564 46 44 44.84 44 43.4222V24.8622C44 24.1533 43.7459 23.5089 43.2376 22.9933L37.837 17.7089ZM41.4586 24.8622H36.9475C36.5028 24.8622 36.1215 24.4756 36.1215 24.0244V19.7067L41.4586 24.8622ZM23.5414 43.4222V19.5778H33.5801V24.0244C33.5801 25.8933 35.105 27.44 36.9475 27.44H41.4586V43.4222H23.5414Z" fill="#03A06C"/>
<path d="M36.8204 29.6955C36.3122 29.1799 35.5497 29.1799 35.0414 29.6955L27.7348 37.0421C27.2265 37.5577 27.2265 38.331 27.7348 38.8466C27.989 39.1044 28.3066 39.2332 28.6243 39.2332C28.942 39.2332 29.2597 39.1044 29.5138 38.8466L36.7569 31.4999C37.2652 30.9844 37.2652 30.211 36.8204 29.6955Z" fill="#03A06C"/>
<path d="M35.9945 39.2977C36.9068 39.2977 37.6464 38.5475 37.6464 37.6222C37.6464 36.6968 36.9068 35.9466 35.9945 35.9466C35.0821 35.9466 34.3425 36.6968 34.3425 37.6222C34.3425 38.5475 35.0821 39.2977 35.9945 39.2977Z" fill="#03A06C"/>
<path d="M29.0055 32.4022C29.9179 32.4022 30.6575 31.652 30.6575 30.7266C30.6575 29.8013 29.9179 29.0511 29.0055 29.0511C28.0932 29.0511 27.3536 29.8013 27.3536 30.7266C27.3536 31.652 28.0932 32.4022 29.0055 32.4022Z" fill="#03A06C"/>
</svg>
