<svg width="88" height="82" viewBox="0 0 88 82" fill="none" xmlns="http://www.w3.org/2000/svg">
<path d="M46.7852 16.2361H40.8125V54.0633H46.7852V16.2361Z" fill="#FFD782"/>
<path d="M47.1168 53.0671H40.4805C39.5642 53.0671 38.8213 53.7506 38.8213 54.5936V75.9625H48.7758V54.5936C48.7758 53.7506 48.0332 53.0671 47.1168 53.0671Z" fill="#FFC36E"/>
<path d="M58.2936 77.1201L48.3306 74.0066H39.2686L29.3057 77.12C28.0446 77.514 27.186 78.6819 27.186 80.0032H60.4133C60.4133 78.682 59.5546 77.5142 58.2936 77.1201Z" fill="#FFD782"/>
<path d="M43.7996 9.06211C46.302 9.06211 48.3307 7.03349 48.3307 4.53106C48.3307 2.02862 46.302 0 43.7996 0C41.2972 0 39.2686 2.02862 39.2686 4.53106C39.2686 7.03349 41.2972 9.06211 43.7996 9.06211Z" fill="#FFD782"/>
<path d="M33.0918 53.7475L18.1241 20.8186V15.1034C18.1241 14.2693 17.4478 13.593 16.6137 13.593C15.7796 13.593 15.1033 14.2693 15.1033 15.1034V20.8186L0.135743 53.7475C-0.209352 54.5065 0.126162 55.4016 0.885814 55.7467C1.64102 56.0911 2.53994 55.7572 2.88504 54.9967L16.6135 24.7943L30.3422 54.9967C30.5953 55.5534 31.1438 55.8831 31.7176 55.8822C31.927 55.8822 32.1394 55.8388 32.3416 55.7466C33.1012 55.4016 33.4369 54.5063 33.0918 53.7475Z" fill="#F5B464"/>
<path d="M87.4639 53.7473L72.4962 20.8184V15.1032C72.4962 14.2691 71.8198 13.5928 70.9858 13.5928C70.1517 13.5928 69.4754 14.2691 69.4754 15.1032V20.8184L54.5078 53.7473C54.1627 54.5062 54.4982 55.4014 55.2579 55.7465C56.0146 56.0909 56.912 55.7569 57.2573 54.9964L70.9858 24.7942L84.7144 54.9966C84.9675 55.5533 85.516 55.883 86.0898 55.8822C86.2993 55.8822 86.5116 55.8387 86.7138 55.7465C87.4733 55.4014 87.809 54.5061 87.4639 53.7473Z" fill="#F5B464"/>
<path d="M61.9234 81.5574H25.6754C24.8414 81.5574 24.165 80.8811 24.165 80.047C24.165 79.213 24.8414 78.5366 25.6754 78.5366H61.9234C62.7575 78.5366 63.4338 79.213 63.4338 80.047C63.4338 80.8813 62.7576 81.5574 61.9234 81.5574Z" fill="#F5B464"/>
<path d="M46.8188 18.1234H40.7775C39.9434 18.1234 39.2671 17.447 39.2671 16.6129C39.2671 15.7789 39.9434 15.1025 40.7775 15.1025H46.8188C47.6529 15.1025 48.3292 15.7789 48.3292 16.6129C48.329 17.4472 47.653 18.1234 46.8188 18.1234Z" fill="#F5B464"/>
<path d="M16.6139 24.1651C18.2822 24.1651 19.6346 22.8127 19.6346 21.1444C19.6346 19.4762 18.2822 18.1238 16.6139 18.1238C14.9457 18.1238 13.5933 19.4762 13.5933 21.1444C13.5933 22.8127 14.9457 24.1651 16.6139 24.1651Z" fill="#FFD782"/>
<path d="M70.986 24.1651C72.6542 24.1651 74.0066 22.8127 74.0066 21.1444C74.0066 19.4762 72.6542 18.1238 70.986 18.1238C69.3177 18.1238 67.9653 19.4762 67.9653 21.1444C67.9653 22.8127 69.3177 24.1651 70.986 24.1651Z" fill="#FFD782"/>
<path d="M31.717 52.8616H1.51041C0.676331 52.8616 0 53.5379 0 54.372C0 60.3004 7.29711 64.9443 16.6136 64.9443C25.9302 64.9443 33.2273 60.3004 33.2273 54.372C33.2275 53.5379 32.5511 52.8616 31.717 52.8616Z" fill="#FFD782"/>
<path d="M86.0891 52.8616H55.8825C55.0484 52.8616 54.3721 53.5379 54.3721 54.372C54.3721 60.3004 61.6692 64.9443 70.9857 64.9443C80.3022 64.9443 87.5994 60.3004 87.5994 54.372C87.5995 53.5379 86.9232 52.8616 86.0891 52.8616Z" fill="#FFD782"/>
<path d="M72.4149 11.8327L46.7854 7.27637H40.8128L15.1834 11.8327C14.4635 11.9608 13.9355 12.6253 13.9355 13.4036V13.6472C13.9355 14.5268 14.6042 15.24 15.4288 15.24H72.1694C72.994 15.24 73.6627 14.5268 73.6627 13.6472V13.4036C73.6625 12.6253 73.1348 11.9608 72.4149 11.8327Z" fill="#FFC36E"/>
</svg>
