<svg width="64" height="64" viewBox="0 0 64 64" fill="none" xmlns="http://www.w3.org/2000/svg">
<path d="M54.758 61.7228C39.586 64.7591 24.414 64.7591 9.24202 61.7228C6.13609 61.0715 2.92851 57.8639 2.27721 54.758C-0.75907 39.586 -0.75907 24.414 2.27721 9.24202C2.92851 6.13609 6.13609 2.92851 9.24202 2.27721C24.414 -0.75907 39.586 -0.75907 54.758 2.27721C57.8639 2.92851 61.0715 6.13609 61.7228 9.24202C64.7591 24.414 64.7591 39.586 61.7228 54.758C61.0715 57.8639 57.8639 61.0715 54.758 61.7228Z" fill="#F1F5F4"/>
<path d="M28.2 30.1667L33 34.8333L37.8 30.1667M23.4 22H42.6C43.2365 22 43.847 22.2458 44.2971 22.6834C44.7471 23.121 45 23.7145 45 24.3333V31.3333C45 34.4275 43.7357 37.395 41.4853 39.5829C39.2348 41.7708 36.1826 43 33 43C31.4241 43 29.8637 42.6982 28.4078 42.1119C26.9519 41.5256 25.629 40.6663 24.5147 39.5829C22.2643 37.395 21 34.4275 21 31.3333V24.3333C21 23.7145 21.2529 23.121 21.7029 22.6834C22.153 22.2458 22.7635 22 23.4 22Z" stroke="#03A06C" stroke-width="2.6" stroke-linecap="round" stroke-linejoin="round"/>
</svg>
