<svg width="96" height="16" viewBox="0 0 96 16" fill="none" xmlns="http://www.w3.org/2000/svg">
<path fill-rule="evenodd" clip-rule="evenodd" d="M10.1545 6.1984V4.1254C10.1545 2.6794 9.4495 1.3294 8.1925 0.5724C7.54007 0.187701 6.79442 -0.0101789 6.03709 0.00040324C5.27976 0.0109854 4.53993 0.229622 3.8985 0.6324C3.33049 0.997893 2.86263 1.49932 2.53733 2.09127C2.21202 2.68321 2.03953 3.34697 2.0355 4.0224C2.0335 4.5434 2.0345 5.0644 2.0355 5.5854V6.2004C1.82881 6.2123 1.62498 6.25442 1.4305 6.3254C0.5545 6.6544 0.0055 7.4904 0.0015 8.4144C-0.0005 9.2684 -0.0005 10.1214 0.0015 10.9744V13.7534C0.0055 14.6704 0.5355 15.5154 1.4095 15.8534C1.7935 16.0024 2.1935 16.0004 2.5975 15.9994H9.3785C9.5805 16.0004 9.7825 16.0014 9.9835 15.9994C10.5183 15.9933 11.0329 15.7944 11.4329 15.4393C11.8328 15.0842 12.0912 14.5967 12.1605 14.0664C12.1995 13.7684 12.1915 13.4574 12.1845 13.1524C12.1815 13.0324 12.1785 12.9124 12.1785 12.7944V8.5554C12.1785 8.4074 12.1795 8.2604 12.1605 8.1114C12.099 7.60973 11.8655 7.1449 11.4997 6.79608C11.1339 6.44727 10.6585 6.23605 10.1545 6.1984ZM8.8045 6.1894H3.3825C3.3825 5.9994 3.3805 5.8104 3.3795 5.6214C3.3755 5.1244 3.3725 4.6274 3.3825 4.1324C3.4115 2.5694 4.8255 1.3434 6.3875 1.5074C6.89837 1.56564 7.38255 1.76645 7.78468 2.08688C8.18681 2.40731 8.49066 2.83443 8.6615 3.3194C8.8165 3.7924 8.8115 4.2824 8.8065 4.7714L8.8045 5.0314V6.1904V6.1894Z" fill="#03A06C"/>
<path d="M25.9594 3.50049H27.6844V14.0005H25.9594V9.45549H21.4594V14.0005H19.7344V3.50049H21.4594V7.80549H25.9594V3.50049ZM36.8024 3.50049V5.15049H33.8474V14.0005H32.1224V5.15049H29.1524V3.50049H36.8024ZM45.0974 3.50049V5.15049H42.1424V14.0005H40.4174V5.15049H37.4474V3.50049H45.0974ZM50.4374 3.50049C51.4274 3.50049 52.2524 3.83049 52.9124 4.49049C53.5824 5.15049 53.9174 5.97049 53.9174 6.95049C53.9174 7.92049 53.5824 8.74049 52.9124 9.41049C52.2524 10.0705 51.4274 10.4005 50.4374 10.4005H48.2924V14.0005H46.5674V3.50049H50.4374ZM50.4374 8.78049C50.9474 8.78049 51.3674 8.61049 51.6974 8.27049C52.0274 7.92049 52.1924 7.48049 52.1924 6.95049C52.1924 6.42049 52.0274 5.98549 51.6974 5.64549C51.3674 5.29549 50.9474 5.12049 50.4374 5.12049H48.2924V8.78049H50.4374ZM58.8114 14.1955C57.8014 14.1955 56.9414 13.9655 56.2314 13.5055C55.5314 13.0455 55.0414 12.4155 54.7614 11.6155L56.2474 10.7455C56.6674 11.9255 57.5374 12.5155 58.8574 12.5155C59.5074 12.5155 59.9914 12.3905 60.3114 12.1405C60.6414 11.8805 60.8064 11.5455 60.8064 11.1355C60.8064 10.7055 60.6314 10.3805 60.2814 10.1605C59.9314 9.93049 59.3114 9.68049 58.4214 9.41049C57.9214 9.26049 57.5174 9.12049 57.2064 8.99049C56.8606 8.84109 56.5292 8.66033 56.2164 8.45049C55.8901 8.22585 55.627 7.9211 55.4524 7.56549C55.2824 7.21549 55.1974 6.80549 55.1974 6.33549C55.1974 5.40549 55.5274 4.67049 56.1874 4.13049C56.8474 3.58049 57.6424 3.30549 58.5724 3.30549C59.4124 3.30549 60.1474 3.51049 60.7774 3.92049C61.4124 4.33683 61.9165 4.9245 62.2314 5.61549L60.7774 6.45549C60.3374 5.47549 59.6014 4.98549 58.5714 4.98549C58.0714 4.98549 57.6714 5.10549 57.3714 5.34549C57.0714 5.57549 56.9214 5.89049 56.9214 6.29049C56.9214 6.68049 57.0714 6.99049 57.3714 7.22049C57.6814 7.44049 58.2374 7.67549 59.0374 7.92549C59.4374 8.05549 59.7274 8.15549 59.9074 8.22549C60.0974 8.28549 60.3574 8.38549 60.6874 8.52549C61.0274 8.66549 61.2814 8.80549 61.4514 8.94549C61.6214 9.08549 61.8014 9.26049 61.9914 9.47049C62.1914 9.68049 62.3314 9.92049 62.4114 10.1905C62.4914 10.4605 62.5314 10.7655 62.5314 11.1055C62.5314 12.0555 62.1864 12.8105 61.4964 13.3705C60.8164 13.9205 59.9214 14.1955 58.8124 14.1955H58.8114ZM64.5274 15.5005H63.7024L69.7024 2.00049H70.5274L64.5274 15.5005ZM75.7974 14.1955C74.7874 14.1955 73.9274 13.9655 73.2174 13.5055C72.5174 13.0455 72.0274 12.4155 71.7474 11.6155L73.2324 10.7455C73.6524 11.9255 74.5224 12.5155 75.8424 12.5155C76.4924 12.5155 76.9774 12.3905 77.2974 12.1405C77.6274 11.8805 77.7924 11.5455 77.7924 11.1355C77.7924 10.7055 77.6174 10.3805 77.2674 10.1605C76.9174 9.93049 76.2974 9.68049 75.4074 9.41049C74.9074 9.26049 74.5024 9.12049 74.1924 8.99049C73.8466 8.84109 73.5152 8.66033 73.2024 8.45049C72.8757 8.22598 72.6123 7.92121 72.4374 7.56549C72.2674 7.21549 72.1824 6.80549 72.1824 6.33549C72.1824 5.40549 72.5124 4.67049 73.1724 4.13049C73.8324 3.58049 74.6274 3.30549 75.5574 3.30549C76.3974 3.30549 77.1324 3.51049 77.7624 3.92049C78.3978 4.33668 78.9022 4.92438 79.2174 5.61549L77.7624 6.45549C77.3224 5.47549 76.5874 4.98549 75.5574 4.98549C75.0574 4.98549 74.6574 5.10549 74.3574 5.34549C74.0574 5.57549 73.9074 5.89049 73.9074 6.29049C73.9074 6.68049 74.0574 6.99049 74.3574 7.22049C74.6674 7.44049 75.2224 7.67549 76.0224 7.92549C76.4224 8.05549 76.7124 8.15549 76.8924 8.22549C77.0824 8.28549 77.3424 8.38549 77.6724 8.52549C78.0124 8.66549 78.2674 8.80549 78.4374 8.94549C78.6074 9.08549 78.7874 9.26049 78.9774 9.47049C79.1774 9.68049 79.3174 9.92049 79.3974 10.1905C79.4774 10.4605 79.5174 10.7655 79.5174 11.1055C79.5174 12.0555 79.1724 12.8105 78.4824 13.3705C77.8024 13.9205 76.9074 14.1955 75.7974 14.1955ZM84.3564 14.1955C83.3464 14.1955 82.4864 13.9655 81.7764 13.5055C81.0764 13.0455 80.5864 12.4155 80.3064 11.6155L81.7914 10.7455C82.2114 11.9255 83.0814 12.5155 84.4014 12.5155C85.0514 12.5155 85.5364 12.3905 85.8564 12.1405C86.1864 11.8805 86.3514 11.5455 86.3514 11.1355C86.3514 10.7055 86.1764 10.3805 85.8264 10.1605C85.4764 9.93049 84.8564 9.68049 83.9664 9.41049C83.4664 9.26049 83.0614 9.12049 82.7514 8.99049C82.4056 8.84109 82.0742 8.66033 81.7614 8.45049C81.4347 8.22598 81.1713 7.92121 80.9964 7.56549C80.8264 7.21549 80.7414 6.80549 80.7414 6.33549C80.7414 5.40549 81.0714 4.67049 81.7314 4.13049C82.3914 3.58049 83.1864 3.30549 84.1164 3.30549C84.9564 3.30549 85.6914 3.51049 86.3214 3.92049C86.9568 4.33668 87.4613 4.92438 87.7764 5.61549L86.3214 6.45549C85.8814 5.47549 85.1464 4.98549 84.1164 4.98549C83.6164 4.98549 83.2164 5.10549 82.9164 5.34549C82.6164 5.57549 82.4664 5.89049 82.4664 6.29049C82.4664 6.68049 82.6164 6.99049 82.9164 7.22049C83.2264 7.44049 83.7814 7.67549 84.5814 7.92549C84.9814 8.05549 85.2714 8.15549 85.4514 8.22549C85.6414 8.28549 85.9014 8.38549 86.2314 8.52549C86.5714 8.66549 86.8264 8.80549 86.9964 8.94549C87.1664 9.08549 87.3464 9.26049 87.5364 9.47049C87.7364 9.68049 87.8764 9.92049 87.9564 10.1905C88.0364 10.4605 88.0764 10.7655 88.0764 11.1055C88.0764 12.0555 87.7314 12.8105 87.0414 13.3705C86.3614 13.9205 85.4664 14.1955 84.3564 14.1955ZM91.4084 12.3505H95.6844V14.0005H89.6844V3.50049H91.4094V12.3505H91.4084Z" fill="#03A06C"/>
</svg>
