<svg width="64" height="64" viewBox="0 0 64 64" fill="none" xmlns="http://www.w3.org/2000/svg">
<path d="M54.758 61.7228C39.586 64.7591 24.414 64.7591 9.24202 61.7228C6.13609 61.0715 2.92851 57.8639 2.27721 54.758C-0.75907 39.586 -0.75907 24.414 2.27721 9.24202C2.92851 6.13609 6.13609 2.92851 9.24202 2.27721C24.414 -0.75907 39.586 -0.75907 54.758 2.27721C57.8639 2.92851 61.0715 6.13609 61.7228 9.24202C64.7591 24.414 64.7591 39.586 61.7228 54.758C61.0715 57.8639 57.8639 61.0715 54.758 61.7228Z" fill="#F1F5F4"/>
<path fill-rule="evenodd" clip-rule="evenodd" d="M42.3458 25.283V22.9297C42.3458 21.9994 41.9667 21.1784 41.3167 20.6312C40.6125 20.0839 39.6917 19.865 38.6625 20.0839L22.25 21.9994C19.5417 22.3277 19 23.5865 19 24.6263V41.0994C19 42.6865 20.3 44 21.8708 44H42.1292C43.7 44 45 42.6865 45 41.0994V28.1836C44.9458 26.6512 43.8083 25.4472 42.3458 25.283ZM42.7792 36.6117C42.725 36.6117 42.6708 36.6117 42.5625 36.6117H37.4708C36.2792 36.6117 35.3042 35.6266 35.3042 34.4226C35.3042 33.2186 36.2792 32.2335 37.4708 32.2335H42.5625C42.6167 32.2335 42.6708 32.2335 42.7792 32.2335V36.6117ZM22.4667 24.2432L38.9875 22.3277C39.0417 22.3277 39.0417 22.3277 39.0958 22.3277C39.475 22.2183 39.8 22.273 39.9625 22.4372C40.125 22.5466 40.1792 22.7656 40.1792 23.0392V25.3378H21.8167H21.7625H21.7083C21.3833 25.3378 21.275 25.2283 21.1125 24.9547V24.7905C21.1125 24.5716 21.3833 24.3527 22.4667 24.2432ZM42.075 41.9203H21.8167C21.4375 41.9203 21.1125 41.592 21.1125 41.2089V27.4174C21.3833 27.4722 21.6 27.4722 21.8708 27.4722H42.075C42.4542 27.4722 42.7792 27.8005 42.7792 28.1836V30.0991C42.725 30.0991 42.6708 30.0991 42.5625 30.0991H37.4708C35.0875 30.0991 33.1375 32.0693 33.1375 34.4773C33.1375 36.8854 35.0875 38.8556 37.4708 38.8556H42.5625C42.6167 38.8556 42.6708 38.8556 42.7792 38.8556V41.2636C42.7792 41.592 42.4542 41.9203 42.075 41.9203Z" fill="#03A06C"/>
<path d="M37.5 35C38.3284 35 39 34.5523 39 34C39 33.4477 38.3284 33 37.5 33C36.6716 33 36 33.4477 36 34C36 34.5523 36.6716 35 37.5 35Z" fill="#03A06C"/>
</svg>
