<svg width="85" height="60" viewBox="0 0 85 60" fill="none" xmlns="http://www.w3.org/2000/svg">
<path d="M84.2031 13C84.2031 13 83.4062 7 80.75 4.5C77.5625 1 73.8438 1 72.25 1C60.2969 0 42.5 0 42.5 0C42.5 0 24.7031 0 12.75 0.75C11.1562 1 7.4375 1 4.25 4.25C1.59375 6.75 0.796875 12.75 0.796875 12.75C0.796875 12.75 0 19.75 0 26.75V33.25C0 40.25 0.796875 47 0.796875 47C0.796875 47 1.59375 53 4.25 55.5C7.4375 59 11.6875 58.75 13.5469 59.25C20.4531 59.75 42.5 60 42.5 60C42.5 60 60.2969 60 72.25 59C73.8438 58.75 77.5625 58.75 80.75 55.5C83.4062 53 84.2031 47 84.2031 47C84.2031 47 85 40 85 33.25V26.75C85 19.75 84.2031 13 84.2031 13Z" fill="#E02F2F"/>
<path d="M31.875 15V45L58.4375 30L31.875 15Z" fill="white"/>
</svg>
